<svg xmlns="http://www.w3.org/2000/svg" xmlns:xlink="http://www.w3.org/1999/xlink" contentStyleType="text/css" data-diagram-type="DESCRIPTION" height="2180.2083px" preserveAspectRatio="none" style="width:1325px;height:2180px;" version="1.1" viewBox="0 0 1325 2180" width="1325px" zoomAndPan="magnify"><title>Proteomics Pipeline CLI Parameters - Component Architecture</title><defs><linearGradient id="g9m2wso9e73ld0" x1="50%" x2="50%" y1="0%" y2="100%"><stop offset="0%" stop-color="#FFFFFF"/><stop offset="100%" stop-color="#EEEEEE"/></linearGradient><linearGradient id="g9m2wso9e73ld1" x1="50%" x2="50%" y1="0%" y2="100%"><stop offset="0%" stop-color="#F18E3E"/><stop offset="100%" stop-color="#EC7211"/></linearGradient></defs><g><g class="title" data-source-line="2"><rect fill="url(#g9m2wso9e73ld0)" height="45.0846" rx="4.1667" ry="4.1667" style="stroke:#EEEEEE;stroke-width:1.0417;" width="752.7669" x="279.0415" y="5.2083"/><text fill="#EC7211" font-family="'Verdana'" font-size="20.8333" font-weight="bold" lengthAdjust="spacing" textLength="731.9336" x="289.4582" y="34.963">Proteomics Pipeline CLI Parameters - Component Architecture</text></g><!--cluster Pipeline Control--><g class="cluster" data-entity="Pipeline Control" data-source-line="4" data-uid="ent0002" id="cluster_Pipeline Control"><path d="M594.7917,205.3451 L715.9668,205.3451 A6.25,6.25 0 0 1 720.1335,209.5117 L727.4251,236.5625 L1020.8333,236.5625 A4.1667,4.1667 0 0 1 1025,240.7292 L1025,317.8138 A4.1667,4.1667 0 0 1 1020.8333,321.9805 L594.7917,321.9805 A4.1667,4.1667 0 0 1 590.625,317.8138 L590.625,209.5117 A4.1667,4.1667 0 0 1 594.7917,205.3451" fill="none" style="stroke:#4E5D6C;stroke-width:2.0833;"/><line style="stroke:#4E5D6C;stroke-width:2.0833;" x1="590.625" x2="727.4251" y1="236.5625" y2="236.5625"/><text fill="#4E5D6C" font-family="'Verdana'" font-size="12.5" font-weight="bold" lengthAdjust="spacing" textLength="112.8418" x="600" y="224.2395">Pipeline Control</text></g><!--cluster Preprocessing Module--><g class="cluster" data-entity="Preprocessing Module" data-source-line="9" data-uid="ent0005" id="cluster_Preprocessing Module"><path d="M227.0833,381.3555 L391.807,381.3555 A6.25,6.25 0 0 1 395.9737,385.5221 L403.2654,412.5729 L464.5833,412.5729 A4.1667,4.1667 0 0 1 468.75,416.7396 L468.75,1426.293 A4.1667,4.1667 0 0 1 464.5833,1430.4596 L227.0833,1430.4596 A4.1667,4.1667 0 0 1 222.9167,1426.293 L222.9167,385.5221 A4.1667,4.1667 0 0 1 227.0833,381.3555" fill="none" style="stroke:#4E5D6C;stroke-width:2.0833;"/><line style="stroke:#4E5D6C;stroke-width:2.0833;" x1="222.9167" x2="403.2654" y1="412.5729" y2="412.5729"/><text fill="#4E5D6C" font-family="'Verdana'" font-size="12.5" font-weight="bold" lengthAdjust="spacing" textLength="156.3904" x="232.2917" y="400.2499">Preprocessing Module</text></g><!--cluster Differential Expression Module--><g class="cluster" data-entity="Differential Expression Module" data-source-line="18" data-uid="ent0012" id="cluster_Differential Expression Module"><path d="M540.625,1539.6055 L766.6768,1539.6055 A6.25,6.25 0 0 1 770.8435,1543.7721 L778.1352,1570.8229 L777.0833,1570.8229 A4.1667,4.1667 0 0 1 781.25,1574.9896 L781.25,1834.1992 A4.1667,4.1667 0 0 1 777.0833,1838.3659 L540.625,1838.3659 A4.1667,4.1667 0 0 1 536.4583,1834.1992 L536.4583,1543.7721 A4.1667,4.1667 0 0 1 540.625,1539.6055" fill="none" style="stroke:#4E5D6C;stroke-width:2.0833;"/><line style="stroke:#4E5D6C;stroke-width:2.0833;" x1="536.4583" x2="778.1352" y1="1570.8229" y2="1570.8229"/><text fill="#4E5D6C" font-family="'Verdana'" font-size="12.5" font-weight="bold" lengthAdjust="spacing" textLength="217.7185" x="545.8333" y="1558.4999">Differential Expression Module</text></g><!--cluster Enrichment Analysis Module--><g class="cluster" data-entity="Enrichment Analysis Module" data-source-line="23" data-uid="ent0015" id="cluster_Enrichment Analysis Module"><path d="M780.2083,1899.793 L988.0595,1899.793 A6.25,6.25 0 0 1 992.2262,1903.9596 L999.5178,1931.0104 L1118.75,1931.0104 A4.1667,4.1667 0 0 1 1122.9167,1935.1771 L1122.9167,2012.2617 A4.1667,4.1667 0 0 1 1118.75,2016.4284 L780.2083,2016.4284 A4.1667,4.1667 0 0 1 776.0417,2012.2617 L776.0417,1903.9596 A4.1667,4.1667 0 0 1 780.2083,1899.793" fill="none" style="stroke:#4E5D6C;stroke-width:2.0833;"/><line style="stroke:#4E5D6C;stroke-width:2.0833;" x1="776.0417" x2="999.5178" y1="1931.0104" y2="1931.0104"/><text fill="#4E5D6C" font-family="'Verdana'" font-size="12.5" font-weight="bold" lengthAdjust="spacing" textLength="199.5178" x="785.4167" y="1918.6874">Enrichment Analysis Module</text></g><!--entity AC--><g class="entity" data-entity="AC" data-source-line="5" data-uid="ent0003" id="entity_AC"><rect fill="url(#g9m2wso9e73ld1)" height="56.2174" rx="4.1667" ry="4.1667" style="stroke:#EC7211;stroke-width:1.0417;" width="169.3197" x="839.2917" y="249.0951"/><rect fill="url(#g9m2wso9e73ld1)" height="10.4167" style="stroke:#EC7211;stroke-width:1.0417;" width="15.625" x="987.778" y="254.3034"/><rect fill="url(#g9m2wso9e73ld1)" height="2.0833" style="stroke:#EC7211;stroke-width:1.0417;" width="4.1667" x="985.6947" y="256.3867"/><rect fill="url(#g9m2wso9e73ld1)" height="2.0833" style="stroke:#EC7211;stroke-width:1.0417;" width="4.1667" x="985.6947" y="260.5534"/><text fill="#FFFFFF" font-family="'Verdana'" font-size="12.5" lengthAdjust="spacing" textLength="117.2363" x="860.125" y="286.7395">Analysis Controller</text></g><!--entity CM--><g class="entity" data-entity="CM" data-source-line="6" data-uid="ent0004" id="entity_CM"><rect fill="url(#g9m2wso9e73ld1)" height="56.2174" rx="4.1667" ry="4.1667" style="stroke:#EC7211;stroke-width:1.0417;" width="195.6197" x="607.3958" y="249.0951"/><rect fill="url(#g9m2wso9e73ld1)" height="10.4167" style="stroke:#EC7211;stroke-width:1.0417;" width="15.625" x="782.1822" y="254.3034"/><rect fill="url(#g9m2wso9e73ld1)" height="2.0833" style="stroke:#EC7211;stroke-width:1.0417;" width="4.1667" x="780.0989" y="256.3867"/><rect fill="url(#g9m2wso9e73ld1)" height="2.0833" style="stroke:#EC7211;stroke-width:1.0417;" width="4.1667" x="780.0989" y="260.5534"/><text fill="#FFFFFF" font-family="'Verdana'" font-size="12.5" lengthAdjust="spacing" textLength="143.5364" x="628.2292" y="286.7395">Configuration Manager</text></g><!--entity DL--><g class="entity" data-entity="DL" data-source-line="10" data-uid="ent0006" id="entity_DL"><rect fill="url(#g9m2wso9e73ld1)" height="56.2174" rx="4.1667" ry="4.1667" style="stroke:#EC7211;stroke-width:1.0417;" width="128.9388" x="308.4479" y="425.1055"/><rect fill="url(#g9m2wso9e73ld1)" height="10.4167" style="stroke:#EC7211;stroke-width:1.0417;" width="15.625" x="416.5534" y="430.3138"/><rect fill="url(#g9m2wso9e73ld1)" height="2.0833" style="stroke:#EC7211;stroke-width:1.0417;" width="4.1667" x="414.4701" y="432.3971"/><rect fill="url(#g9m2wso9e73ld1)" height="2.0833" style="stroke:#EC7211;stroke-width:1.0417;" width="4.1667" x="414.4701" y="436.5638"/><text fill="#FFFFFF" font-family="'Verdana'" font-size="12.5" lengthAdjust="spacing" textLength="76.8555" x="329.2813" y="462.7499">Data Loader</text></g><!--entity NORM--><g class="entity" data-entity="NORM" data-source-line="11" data-uid="ent0007" id="entity_NORM"><rect fill="url(#g9m2wso9e73ld1)" height="56.2174" rx="4.1667" ry="4.1667" style="stroke:#EC7211;stroke-width:1.0417;" width="120.3939" x="312.7188" y="614.5013"/><rect fill="url(#g9m2wso9e73ld1)" height="10.4167" style="stroke:#EC7211;stroke-width:1.0417;" width="15.625" x="412.2793" y="619.7096"/><rect fill="url(#g9m2wso9e73ld1)" height="2.0833" style="stroke:#EC7211;stroke-width:1.0417;" width="4.1667" x="410.196" y="621.793"/><rect fill="url(#g9m2wso9e73ld1)" height="2.0833" style="stroke:#EC7211;stroke-width:1.0417;" width="4.1667" x="410.196" y="625.9596"/><text fill="#FFFFFF" font-family="'Verdana'" font-size="12.5" lengthAdjust="spacing" textLength="68.3105" x="333.5521" y="652.1458">Normalizer</text></g><!--entity PM--><g class="entity" data-entity="PM" data-source-line="12" data-uid="ent0008" id="entity_PM"><rect fill="url(#g9m2wso9e73ld1)" height="56.2174" rx="4.1667" ry="4.1667" style="stroke:#EC7211;stroke-width:1.0417;" width="147.5118" x="273.1146" y="796.6367"/><rect fill="url(#g9m2wso9e73ld1)" height="10.4167" style="stroke:#EC7211;stroke-width:1.0417;" width="15.625" x="399.7931" y="801.8451"/><rect fill="url(#g9m2wso9e73ld1)" height="2.0833" style="stroke:#EC7211;stroke-width:1.0417;" width="4.1667" x="397.7097" y="803.9284"/><rect fill="url(#g9m2wso9e73ld1)" height="2.0833" style="stroke:#EC7211;stroke-width:1.0417;" width="4.1667" x="397.7097" y="808.0951"/><text fill="#FFFFFF" font-family="'Verdana'" font-size="12.5" lengthAdjust="spacing" textLength="95.4285" x="293.9479" y="834.2812">Protein Mapper</text></g><!--entity BC--><g class="entity" data-entity="BC" data-source-line="13" data-uid="ent0009" id="entity_BC"><rect fill="url(#g9m2wso9e73ld1)" height="56.2174" rx="4.1667" ry="4.1667" style="stroke:#EC7211;stroke-width:1.0417;" width="150.8931" x="271.4271" y="971.4909"/><rect fill="url(#g9m2wso9e73ld1)" height="10.4167" style="stroke:#EC7211;stroke-width:1.0417;" width="15.625" x="401.4869" y="976.6992"/><rect fill="url(#g9m2wso9e73ld1)" height="2.0833" style="stroke:#EC7211;stroke-width:1.0417;" width="4.1667" x="399.4036" y="978.7826"/><rect fill="url(#g9m2wso9e73ld1)" height="2.0833" style="stroke:#EC7211;stroke-width:1.0417;" width="4.1667" x="399.4036" y="982.9492"/><text fill="#FFFFFF" font-family="'Verdana'" font-size="12.5" lengthAdjust="spacing" textLength="98.8098" x="292.2604" y="1009.1353">Batch Corrector</text></g><!--entity FS--><g class="entity" data-entity="FS" data-source-line="14" data-uid="ent0010" id="entity_FS"><rect fill="url(#g9m2wso9e73ld1)" height="56.2174" rx="4.1667" ry="4.1667" style="stroke:#EC7211;stroke-width:1.0417;" width="212.0626" x="239.8021" y="1146.3451"/><rect fill="url(#g9m2wso9e73ld1)" height="10.4167" style="stroke:#EC7211;stroke-width:1.0417;" width="15.625" x="431.0313" y="1151.5534"/><rect fill="url(#g9m2wso9e73ld1)" height="2.0833" style="stroke:#EC7211;stroke-width:1.0417;" width="4.1667" x="428.948" y="1153.6367"/><rect fill="url(#g9m2wso9e73ld1)" height="2.0833" style="stroke:#EC7211;stroke-width:1.0417;" width="4.1667" x="428.948" y="1157.8034"/><text fill="#FFFFFF" font-family="'Verdana'" font-size="12.5" lengthAdjust="spacing" textLength="159.9792" x="260.6354" y="1183.9895">Feature Selector &amp; Scaler</text></g><!--entity VIZ--><g class="entity" data-entity="VIZ" data-source-line="15" data-uid="ent0011" id="entity_VIZ"><rect fill="url(#g9m2wso9e73ld1)" height="56.2174" rx="4.1667" ry="4.1667" style="stroke:#EC7211;stroke-width:1.0417;" width="112.5387" x="326.0208" y="1357.5742"/><rect fill="url(#g9m2wso9e73ld1)" height="10.4167" style="stroke:#EC7211;stroke-width:1.0417;" width="15.625" x="417.7262" y="1362.7826"/><rect fill="url(#g9m2wso9e73ld1)" height="2.0833" style="stroke:#EC7211;stroke-width:1.0417;" width="4.1667" x="415.6428" y="1364.8659"/><rect fill="url(#g9m2wso9e73ld1)" height="2.0833" style="stroke:#EC7211;stroke-width:1.0417;" width="4.1667" x="415.6428" y="1369.0326"/><text fill="#FFFFFF" font-family="'Verdana'" font-size="12.5" lengthAdjust="spacing" textLength="60.4553" x="346.8542" y="1395.2187">Visualizer</text></g><!--entity LIMMA--><g class="entity" data-entity="LIMMA" data-source-line="19" data-uid="ent0013" id="entity_LIMMA"><rect fill="url(#g9m2wso9e73ld1)" height="56.2174" rx="4.1667" ry="4.1667" style="stroke:#EC7211;stroke-width:1.0417;" width="141.3472" x="611.6146" y="1583.3555"/><rect fill="url(#g9m2wso9e73ld1)" height="10.4167" style="stroke:#EC7211;stroke-width:1.0417;" width="15.625" x="732.1285" y="1588.5638"/><rect fill="url(#g9m2wso9e73ld1)" height="2.0833" style="stroke:#EC7211;stroke-width:1.0417;" width="4.1667" x="730.0452" y="1590.6471"/><rect fill="url(#g9m2wso9e73ld1)" height="2.0833" style="stroke:#EC7211;stroke-width:1.0417;" width="4.1667" x="730.0452" y="1594.8138"/><text fill="#FFFFFF" font-family="'Verdana'" font-size="12.5" lengthAdjust="spacing" textLength="89.2639" x="632.4479" y="1620.9999">Limma Engine</text></g><!--entity RG--><g class="entity" data-entity="RG" data-source-line="20" data-uid="ent0014" id="entity_RG"><rect fill="url(#g9m2wso9e73ld1)" height="56.2174" rx="4.1667" ry="4.1667" style="stroke:#EC7211;stroke-width:1.0417;" width="165.2303" x="599.6771" y="1765.4805"/><rect fill="url(#g9m2wso9e73ld1)" height="10.4167" style="stroke:#EC7211;stroke-width:1.0417;" width="15.625" x="744.0741" y="1770.6888"/><rect fill="url(#g9m2wso9e73ld1)" height="2.0833" style="stroke:#EC7211;stroke-width:1.0417;" width="4.1667" x="741.9907" y="1772.7721"/><rect fill="url(#g9m2wso9e73ld1)" height="2.0833" style="stroke:#EC7211;stroke-width:1.0417;" width="4.1667" x="741.9907" y="1776.9388"/><text fill="#FFFFFF" font-family="'Verdana'" font-size="12.5" lengthAdjust="spacing" textLength="113.147" x="620.5104" y="1803.1249">Results Generator</text></g><!--entity GSEA--><g class="entity" data-entity="GSEA" data-source-line="24" data-uid="ent0016" id="entity_GSEA"><rect fill="url(#g9m2wso9e73ld1)" height="56.2174" rx="4.1667" ry="4.1667" style="stroke:#EC7211;stroke-width:1.0417;" width="132.9671" x="973.0938" y="1943.543"/><rect fill="url(#g9m2wso9e73ld1)" height="10.4167" style="stroke:#EC7211;stroke-width:1.0417;" width="15.625" x="1085.2275" y="1948.7513"/><rect fill="url(#g9m2wso9e73ld1)" height="2.0833" style="stroke:#EC7211;stroke-width:1.0417;" width="4.1667" x="1083.1442" y="1950.8346"/><rect fill="url(#g9m2wso9e73ld1)" height="2.0833" style="stroke:#EC7211;stroke-width:1.0417;" width="4.1667" x="1083.1442" y="1955.0013"/><text fill="#FFFFFF" font-family="'Verdana'" font-size="12.5" lengthAdjust="spacing" textLength="80.8838" x="993.9271" y="1981.1874">GSEA Engine</text></g><!--entity ENR--><g class="entity" data-entity="ENR" data-source-line="25" data-uid="ent0017" id="entity_ENR"><rect fill="url(#g9m2wso9e73ld1)" height="56.2174" rx="4.1667" ry="4.1667" style="stroke:#EC7211;stroke-width:1.0417;" width="143.2638" x="792.9479" y="1943.543"/><rect fill="url(#g9m2wso9e73ld1)" height="10.4167" style="stroke:#EC7211;stroke-width:1.0417;" width="15.625" x="915.3783" y="1948.7513"/><rect fill="url(#g9m2wso9e73ld1)" height="2.0833" style="stroke:#EC7211;stroke-width:1.0417;" width="4.1667" x="913.295" y="1950.8346"/><rect fill="url(#g9m2wso9e73ld1)" height="2.0833" style="stroke:#EC7211;stroke-width:1.0417;" width="4.1667" x="913.295" y="1955.0013"/><text fill="#FFFFFF" font-family="'Verdana'" font-size="12.5" lengthAdjust="spacing" textLength="91.1804" x="813.7813" y="1981.1874">Enrichr Engine</text></g><g class="entity" data-entity="GMN18" data-source-line="29" data-uid="ent0019" id="entity_GMN18"><path d="M797.2396,66.9596 L797.2396,152.2135 A4.1667,4.1667 0 0 0 801.4063,156.3802 L949.8438,156.3802 L930.8125,248.9076 L958.1771,156.3802 L1129.8263,156.3802 A4.1667,4.1667 0 0 0 1133.9929,152.2135 L1133.9929,73.2096 L1123.5763,62.793 L801.4063,62.793 A4.1667,4.1667 0 0 0 797.2396,66.9596" fill="#0073BB" style="stroke:#005C96;stroke-width:1.0417;"/><path d="M1123.5763,62.793 L1123.5763,71.1263 A2.0833,2.0833 0 0 0 1125.6596,73.2096 L1133.9929,73.2096 L1123.5763,62.793" fill="#0073BB" style="stroke:#005C96;stroke-width:1.0417;"/><text fill="#FFFFFF" font-family="'Verdana'" font-size="12.5" font-weight="bold" lengthAdjust="spacing" textLength="133.5571" x="808.6979" y="84.8124">Analysis Controller</text><text fill="#FFFFFF" font-family="'Verdana'" font-size="12.5" lengthAdjust="spacing" textLength="248.3887" x="808.6979" y="99.3632">--analysis_type (preprocessing|de|both)</text><text fill="#FFFFFF" font-family="'Verdana'" font-size="12.5" lengthAdjust="spacing" textLength="304.4617" x="808.6979" y="113.914">--organism (homo_sapiens|mus_musculus|other)</text><text fill="#FFFFFF" font-family="'Verdana'" font-size="12.5" lengthAdjust="spacing" textLength="59.0332" x="808.6979" y="128.4648">--verbose</text><text fill="#FFFFFF" font-family="'Verdana'" font-size="12.5" lengthAdjust="spacing" textLength="121.9482" x="808.6979" y="143.0155">--ignore_excel_limit</text></g><g class="entity" data-entity="GMN21" data-source-line="37" data-uid="ent0022" id="entity_GMN21"><path d="M566.0313,81.5117 L566.0313,137.6641 A4.1667,4.1667 0 0 0 570.1979,141.8307 L667.3021,141.8307 L698.2708,248.5951 L675.6354,141.8307 L756.8821,141.8307 A4.1667,4.1667 0 0 0 761.0487,137.6641 L761.0487,87.7617 L750.6321,77.3451 L570.1979,77.3451 A4.1667,4.1667 0 0 0 566.0313,81.5117" fill="#0073BB" style="stroke:#005C96;stroke-width:1.0417;"/><path d="M750.6321,77.3451 L750.6321,85.6784 A2.0833,2.0833 0 0 0 752.7154,87.7617 L761.0487,87.7617 L750.6321,77.3451" fill="#0073BB" style="stroke:#005C96;stroke-width:1.0417;"/><text fill="#FFFFFF" font-family="'Verdana'" font-size="12.5" font-weight="bold" lengthAdjust="spacing" textLength="162.7258" x="577.4896" y="99.3645">Configuration Manager</text><text fill="#FFFFFF" font-family="'Verdana'" font-size="12.5" lengthAdjust="spacing" textLength="141.925" x="577.4896" y="113.9153">--preprocessing_config</text><text fill="#FFFFFF" font-family="'Verdana'" font-size="12.5" lengthAdjust="spacing" textLength="69.1467" x="577.4896" y="128.4661">--de_config</text></g><g class="entity" data-entity="GMN24" data-source-line="43" data-uid="ent0025" id="entity_GMN24"><path d="M6.25,403.3034 L6.25,503.1081 A4.1667,4.1667 0 0 0 10.4167,507.2747 L202.0752,507.2747 A4.1667,4.1667 0 0 0 206.2419,503.1081 L206.2419,457.3763 L308.1354,453.2096 L206.2419,449.043 L206.2419,409.5534 L195.8252,399.1367 L10.4167,399.1367 A4.1667,4.1667 0 0 0 6.25,403.3034" fill="#0073BB" style="stroke:#005C96;stroke-width:1.0417;"/><path d="M195.8252,399.1367 L195.8252,407.4701 A2.0833,2.0833 0 0 0 197.9085,409.5534 L206.2419,409.5534 L195.8252,399.1367" fill="#0073BB" style="stroke:#005C96;stroke-width:1.0417;"/><text fill="#FFFFFF" font-family="'Verdana'" font-size="12.5" font-weight="bold" lengthAdjust="spacing" textLength="86.1511" x="17.7083" y="421.1562">Data Loader</text><text fill="#FFFFFF" font-family="'Verdana'" font-size="12.5" lengthAdjust="spacing" textLength="146.0144" x="17.7083" y="435.7069">--expression_data_path</text><text fill="#FFFFFF" font-family="'Verdana'" font-size="12.5" lengthAdjust="spacing" textLength="155.2307" x="17.7083" y="450.2577">--protein_metadata_path</text><text fill="#FFFFFF" font-family="'Verdana'" font-size="12.5" lengthAdjust="spacing" textLength="155.9692" x="17.7083" y="464.8085">--sample_metadata_path</text><text fill="#FFFFFF" font-family="'Verdana'" font-size="12.5" lengthAdjust="spacing" textLength="167.7002" x="17.7083" y="479.3593">--preprocessing_output_dir</text><text fill="#FFFFFF" font-family="'Verdana'" font-size="12.5" lengthAdjust="spacing" textLength="101.2268" x="17.7083" y="493.9101">--h5ad_filename</text></g><g class="entity" data-entity="GMN27" data-source-line="52" data-uid="ent0028" id="entity_GMN27"><path d="M1104.8333,599.9909 L1104.8333,638.4492 L433.5625,642.6159 L1104.8333,646.7826 L1104.8333,685.2448 A4.1667,4.1667 0 0 0 1109,689.4115 L1293.0658,689.4115 A4.1667,4.1667 0 0 0 1297.2324,685.2448 L1297.2324,606.2409 L1286.8158,595.8242 L1109,595.8242 A4.1667,4.1667 0 0 0 1104.8333,599.9909" fill="#0073BB" style="stroke:#005C96;stroke-width:1.0417;"/><path d="M1286.8158,595.8242 L1286.8158,604.1576 A2.0833,2.0833 0 0 0 1288.8991,606.2409 L1297.2324,606.2409 L1286.8158,595.8242" fill="#0073BB" style="stroke:#005C96;stroke-width:1.0417;"/><text fill="#FFFFFF" font-family="'Verdana'" font-size="12.5" font-weight="bold" lengthAdjust="spacing" textLength="77.1606" x="1116.2917" y="617.8437">Normalizer</text><text fill="#FFFFFF" font-family="'Verdana'" font-size="12.5" lengthAdjust="spacing" textLength="155.9814" x="1116.2917" y="632.3944">--skip_peptide_normalize</text><text fill="#FFFFFF" font-family="'Verdana'" font-size="12.5" lengthAdjust="spacing" textLength="135.0342" x="1116.2917" y="646.9452">--skip_sum_normalize</text><text fill="#FFFFFF" font-family="'Verdana'" font-size="12.5" lengthAdjust="spacing" textLength="80.1086" x="1116.2917" y="661.496">--target_sum</text><text fill="#FFFFFF" font-family="'Verdana'" font-size="12.5" lengthAdjust="spacing" textLength="160.1074" x="1116.2917" y="676.0468">--skip_mad_normalization</text></g><g class="entity" data-entity="GMN30" data-source-line="60" data-uid="ent0031" id="entity_GMN30"><path d="M1105.5938,782.1159 L1105.5938,820.5742 L420.75,824.7409 L1105.5938,828.9076 L1105.5938,867.3698 A4.1667,4.1667 0 0 0 1109.7604,871.5365 L1313.156,871.5365 A4.1667,4.1667 0 0 0 1317.3227,867.3698 L1317.3227,788.3659 L1306.906,777.9492 L1109.7604,777.9492 A4.1667,4.1667 0 0 0 1105.5938,782.1159" fill="#0073BB" style="stroke:#005C96;stroke-width:1.0417;"/><path d="M1306.906,777.9492 L1306.906,786.2826 A2.0833,2.0833 0 0 0 1308.9893,788.3659 L1317.3227,788.3659 L1306.906,777.9492" fill="#0073BB" style="stroke:#005C96;stroke-width:1.0417;"/><text fill="#FFFFFF" font-family="'Verdana'" font-size="12.5" font-weight="bold" lengthAdjust="spacing" textLength="109.314" x="1117.0521" y="799.9687">Protein Mapper</text><text fill="#FFFFFF" font-family="'Verdana'" font-size="12.5" lengthAdjust="spacing" textLength="179.4373" x="1117.0521" y="814.5194">--identify_canonical_proteins</text><text fill="#FFFFFF" font-family="'Verdana'" font-size="12.5" lengthAdjust="spacing" textLength="157.8796" x="1117.0521" y="829.0702">--apply_uniparc_mapping</text><text fill="#FFFFFF" font-family="'Verdana'" font-size="12.5" lengthAdjust="spacing" textLength="112.7319" x="1117.0521" y="843.621">--uniparc_db_path</text><text fill="#FFFFFF" font-family="'Verdana'" font-size="12.5" lengthAdjust="spacing" textLength="132.2754" x="1117.0521" y="858.1718">--swiss_prot_ref_path</text></g><g class="entity" data-entity="GMN33" data-source-line="68" data-uid="ent0034" id="entity_GMN33"><path d="M1104.8542,964.2409 L1104.8542,995.4284 L422.7708,999.5951 L1104.8542,1003.7617 L1104.8542,1034.944 A4.1667,4.1667 0 0 0 1109.0208,1039.1107 L1247.2126,1039.1107 A4.1667,4.1667 0 0 0 1251.3792,1034.944 L1251.3792,970.4909 L1240.9626,960.0742 L1109.0208,960.0742 A4.1667,4.1667 0 0 0 1104.8542,964.2409" fill="#0073BB" style="stroke:#005C96;stroke-width:1.0417;"/><path d="M1240.9626,960.0742 L1240.9626,968.4076 A2.0833,2.0833 0 0 0 1243.0459,970.4909 L1251.3792,970.4909 L1240.9626,960.0742" fill="#0073BB" style="stroke:#005C96;stroke-width:1.0417;"/><text fill="#FFFFFF" font-family="'Verdana'" font-size="12.5" font-weight="bold" lengthAdjust="spacing" textLength="111.3037" x="1116.3125" y="982.0937">Batch Corrector</text><text fill="#FFFFFF" font-family="'Verdana'" font-size="12.5" lengthAdjust="spacing" textLength="94.8242" x="1116.3125" y="996.6444">--batch_correct</text><text fill="#FFFFFF" font-family="'Verdana'" font-size="12.5" lengthAdjust="spacing" textLength="114.2334" x="1116.3125" y="1011.1952">--batch_id_column</text><text fill="#FFFFFF" font-family="'Verdana'" font-size="12.5" lengthAdjust="spacing" textLength="106.7017" x="1116.3125" y="1025.746">--mod_id_column</text></g><g class="entity" data-entity="GMN36" data-source-line="75" data-uid="ent0037" id="entity_GMN36"><path d="M1104.7708,1131.8242 L1104.7708,1170.2826 L452.3438,1174.4492 L1104.7708,1178.6159 L1104.7708,1217.0781 A4.1667,4.1667 0 0 0 1108.9375,1221.2448 L1313.9749,1221.2448 A4.1667,4.1667 0 0 0 1318.1416,1217.0781 L1318.1416,1138.0742 L1307.7249,1127.6576 L1108.9375,1127.6576 A4.1667,4.1667 0 0 0 1104.7708,1131.8242" fill="#0073BB" style="stroke:#005C96;stroke-width:1.0417;"/><path d="M1307.7249,1127.6576 L1307.7249,1135.9909 A2.0833,2.0833 0 0 0 1309.8083,1138.0742 L1318.1416,1138.0742 L1307.7249,1127.6576" fill="#0073BB" style="stroke:#005C96;stroke-width:1.0417;"/><text fill="#FFFFFF" font-family="'Verdana'" font-size="12.5" font-weight="bold" lengthAdjust="spacing" textLength="181.0791" x="1116.2292" y="1149.677">Feature Selector &amp; Scaler</text><text fill="#FFFFFF" font-family="'Verdana'" font-size="12.5" lengthAdjust="spacing" textLength="74.292" x="1116.2292" y="1164.2278">--min_mean</text><text fill="#FFFFFF" font-family="'Verdana'" font-size="12.5" lengthAdjust="spacing" textLength="77.9541" x="1116.2292" y="1178.7786">--max_mean</text><text fill="#FFFFFF" font-family="'Verdana'" font-size="12.5" lengthAdjust="spacing" textLength="64.6973" x="1116.2292" y="1193.3293">--min_disp</text><text fill="#FFFFFF" font-family="'Verdana'" font-size="12.5" lengthAdjust="spacing" textLength="115.1062" x="1116.2292" y="1207.8801">--scale_max_value</text></g><g class="entity" data-entity="GMN39" data-source-line="83" data-uid="ent0040" id="entity_GMN39"><path d="M559.5729,1313.9492 L559.5729,1381.5117 L439.0729,1385.6784 L559.5729,1389.8451 L559.5729,1457.4063 A4.1667,4.1667 0 0 0 563.7396,1461.5729 L715.4262,1461.5729 A4.1667,4.1667 0 0 0 719.5929,1457.4063 L719.5929,1320.1992 L709.1762,1309.7826 L563.7396,1309.7826 A4.1667,4.1667 0 0 0 559.5729,1313.9492" fill="#0073BB" style="stroke:#005C96;stroke-width:1.0417;"/><path d="M709.1762,1309.7826 L709.1762,1318.1159 A2.0833,2.0833 0 0 0 711.2595,1320.1992 L719.5929,1320.1992 L709.1762,1309.7826" fill="#0073BB" style="stroke:#005C96;stroke-width:1.0417;"/><text fill="#FFFFFF" font-family="'Verdana'" font-size="12.5" font-weight="bold" lengthAdjust="spacing" textLength="69.22" x="571.0313" y="1331.802">Visualizer</text><text fill="#FFFFFF" font-family="'Verdana'" font-size="12.5" lengthAdjust="spacing" textLength="68.5181" x="571.0313" y="1346.3528">--pca_color</text><text fill="#FFFFFF" font-family="'Verdana'" font-size="12.5" lengthAdjust="spacing" textLength="114.9658" x="571.0313" y="1360.9036">--pca_components</text><text fill="#FFFFFF" font-family="'Verdana'" font-size="12.5" lengthAdjust="spacing" textLength="74.9207" x="571.0313" y="1375.4543">--umap_plot</text><text fill="#FFFFFF" font-family="'Verdana'" font-size="12.5" lengthAdjust="spacing" textLength="85.3699" x="571.0313" y="1390.0051">--n_neighbors</text><text fill="#FFFFFF" font-family="'Verdana'" font-size="12.5" lengthAdjust="spacing" textLength="44.5129" x="571.0313" y="1404.5559">--n_pcs</text><text fill="#FFFFFF" font-family="'Verdana'" font-size="12.5" lengthAdjust="spacing" textLength="115.6982" x="571.0313" y="1419.1067">--skip_plot_oxphos</text><text fill="#FFFFFF" font-family="'Verdana'" font-size="12.5" lengthAdjust="spacing" textLength="127.7283" x="571.0313" y="1433.6575">--oxphos_complexes</text><text fill="#FFFFFF" font-family="'Verdana'" font-size="12.5" lengthAdjust="spacing" textLength="104.1199" x="571.0313" y="1448.2083">--mitocarta_path</text></g><g class="entity" data-entity="GMN42" data-source-line="95" data-uid="ent0043" id="entity_GMN42"><path d="M798.1458,1554.2826 L798.1458,1607.293 L753.2708,1611.4596 L798.1458,1615.6263 L798.1458,1668.638 A4.1667,4.1667 0 0 0 802.3125,1672.8047 L970.5946,1672.8047 A4.1667,4.1667 0 0 0 974.7612,1668.638 L974.7612,1560.5326 L964.3446,1550.1159 L802.3125,1550.1159 A4.1667,4.1667 0 0 0 798.1458,1554.2826" fill="#0073BB" style="stroke:#005C96;stroke-width:1.0417;"/><path d="M964.3446,1550.1159 L964.3446,1558.4492 A2.0833,2.0833 0 0 0 966.4279,1560.5326 L974.7612,1560.5326 L964.3446,1550.1159" fill="#0073BB" style="stroke:#005C96;stroke-width:1.0417;"/><text fill="#FFFFFF" font-family="'Verdana'" font-size="12.5" font-weight="bold" lengthAdjust="spacing" textLength="99.1333" x="809.6042" y="1572.1353">Limma Engine</text><text fill="#FFFFFF" font-family="'Verdana'" font-size="12.5" lengthAdjust="spacing" textLength="66.4612" x="809.6042" y="1586.6861">--input_file</text><text fill="#FFFFFF" font-family="'Verdana'" font-size="12.5" lengthAdjust="spacing" textLength="94.9219" x="809.6042" y="1601.2369">--de_output_dir</text><text fill="#FFFFFF" font-family="'Verdana'" font-size="12.5" lengthAdjust="spacing" textLength="132.6965" x="809.6042" y="1615.7877">--anndata_data_layer</text><text fill="#FFFFFF" font-family="'Verdana'" font-size="12.5" lengthAdjust="spacing" textLength="144.3237" x="809.6042" y="1630.3385">--ignore_non_canonical</text><text fill="#FFFFFF" font-family="'Verdana'" font-size="12.5" lengthAdjust="spacing" textLength="99.8718" x="809.6042" y="1644.8892">--design_factors</text><text fill="#FFFFFF" font-family="'Verdana'" font-size="12.5" lengthAdjust="spacing" textLength="103.7842" x="809.6042" y="1659.44">--condition_pairs</text></g><g class="entity" data-entity="GMN45" data-source-line="105" data-uid="ent0046" id="entity_GMN45"><path d="M801.1354,1765.5117 L801.1354,1789.4284 L765.0625,1793.5951 L801.1354,1797.7617 L801.1354,1821.6641 A4.1667,4.1667 0 0 0 805.3021,1825.8307 L957.1962,1825.8307 A4.1667,4.1667 0 0 0 961.3629,1821.6641 L961.3629,1771.7617 L950.9462,1761.3451 L805.3021,1761.3451 A4.1667,4.1667 0 0 0 801.1354,1765.5117" fill="#0073BB" style="stroke:#005C96;stroke-width:1.0417;"/><path d="M950.9462,1761.3451 L950.9462,1769.6784 A2.0833,2.0833 0 0 0 953.0295,1771.7617 L961.3629,1771.7617 L950.9462,1761.3451" fill="#0073BB" style="stroke:#005C96;stroke-width:1.0417;"/><text fill="#FFFFFF" font-family="'Verdana'" font-size="12.5" font-weight="bold" lengthAdjust="spacing" textLength="127.9358" x="812.5938" y="1783.3645">Results Generator</text><text fill="#FFFFFF" font-family="'Verdana'" font-size="12.5" lengthAdjust="spacing" textLength="104.7424" x="812.5938" y="1797.9153">--logfc_threshold</text><text fill="#FFFFFF" font-family="'Verdana'" font-size="12.5" lengthAdjust="spacing" textLength="100.8789" x="812.5938" y="1812.4661">--pval_threshold</text></g><g class="entity" data-entity="GMN48" data-source-line="111" data-uid="ent0049" id="entity_GMN48"><path d="M973.5208,2069.5534 L973.5208,2169.3581 A4.1667,4.1667 0 0 0 977.6875,2173.5247 L1122.3062,2173.5247 A4.1667,4.1667 0 0 0 1126.4729,2169.3581 L1126.4729,2075.8034 L1116.0562,2065.3867 L1050.3542,2065.3867 L1041.5417,2000.1055 L1042.0208,2065.3867 L977.6875,2065.3867 A4.1667,4.1667 0 0 0 973.5208,2069.5534" fill="#0073BB" style="stroke:#005C96;stroke-width:1.0417;"/><path d="M1116.0562,2065.3867 L1116.0562,2073.7201 A2.0833,2.0833 0 0 0 1118.1396,2075.8034 L1126.4729,2075.8034 L1116.0562,2065.3867" fill="#0073BB" style="stroke:#005C96;stroke-width:1.0417;"/><text fill="#FFFFFF" font-family="'Verdana'" font-size="12.5" font-weight="bold" lengthAdjust="spacing" textLength="89.8743" x="984.9792" y="2087.4062">GSEA Engine</text><text fill="#FFFFFF" font-family="'Verdana'" font-size="12.5" lengthAdjust="spacing" textLength="112.1399" x="984.9792" y="2101.9569">--skip_enrichment</text><text fill="#FFFFFF" font-family="'Verdana'" font-size="12.5" lengthAdjust="spacing" textLength="118.7561" x="984.9792" y="2116.5077">--enrich_databases</text><text fill="#FFFFFF" font-family="'Verdana'" font-size="12.5" lengthAdjust="spacing" textLength="63.0798" x="984.9792" y="2131.0585">--min_size</text><text fill="#FFFFFF" font-family="'Verdana'" font-size="12.5" lengthAdjust="spacing" textLength="66.7419" x="984.9792" y="2145.6093">--max_size</text><text fill="#FFFFFF" font-family="'Verdana'" font-size="12.5" lengthAdjust="spacing" textLength="120.6604" x="984.9792" y="2160.1601">--permutation_num</text></g><g class="entity" data-entity="GMN51" data-source-line="120" data-uid="ent0052" id="entity_GMN51"><path d="M771.5104,2084.1055 L771.5104,2154.8086 A4.1667,4.1667 0 0 0 775.6771,2158.9753 L932.6554,2158.9753 A4.1667,4.1667 0 0 0 936.8221,2154.8086 L936.8221,2090.3555 L926.4054,2079.9388 L861.1042,2079.9388 L862.625,2000.1055 L852.7708,2079.9388 L775.6771,2079.9388 A4.1667,4.1667 0 0 0 771.5104,2084.1055" fill="#0073BB" style="stroke:#005C96;stroke-width:1.0417;"/><path d="M926.4054,2079.9388 L926.4054,2088.2721 A2.0833,2.0833 0 0 0 928.4888,2090.3555 L936.8221,2090.3555 L926.4054,2079.9388" fill="#0073BB" style="stroke:#005C96;stroke-width:1.0417;"/><text fill="#FFFFFF" font-family="'Verdana'" font-size="12.5" font-weight="bold" lengthAdjust="spacing" textLength="102.7588" x="782.9688" y="2101.9583">Enrichr Engine</text><text fill="#FFFFFF" font-family="'Verdana'" font-size="12.5" lengthAdjust="spacing" textLength="84.6191" x="782.9688" y="2116.509">--logfc_enrich</text><text fill="#FFFFFF" font-family="'Verdana'" font-size="12.5" lengthAdjust="spacing" textLength="80.7556" x="782.9688" y="2131.0598">--pval_enrich</text><text fill="#FFFFFF" font-family="'Verdana'" font-size="12.5" lengthAdjust="spacing" textLength="133.02" x="782.9688" y="2145.6106">--pval_enrich_column</text></g><g class="entity" data-entity="GMN69" data-source-line="147" data-uid="ent0070" id="entity_GMN69"><path d="M269.9063,256.3971 L269.9063,297.9987 A4.1667,4.1667 0 0 0 274.0729,302.1654 L357.9792,302.1654 L370.9375,424.7513 L366.3125,302.1654 L446.7617,302.1654 A4.1667,4.1667 0 0 0 450.9284,297.9987 L450.9284,262.6471 L440.5117,252.2305 L274.0729,252.2305 A4.1667,4.1667 0 0 0 269.9063,256.3971" fill="#0073BB" style="stroke:#005C96;stroke-width:1.0417;"/><path d="M440.5117,252.2305 L440.5117,260.5638 A2.0833,2.0833 0 0 0 442.5951,262.6471 L450.9284,262.6471 L440.5117,252.2305" fill="#0073BB" style="stroke:#005C96;stroke-width:1.0417;"/><text fill="#FFFFFF" font-family="'Verdana'" font-size="12.5" lengthAdjust="spacing" textLength="90.271" x="281.3646" y="274.2499">Entry point for</text><text fill="#FFFFFF" font-family="'Verdana'" font-size="12.5" lengthAdjust="spacing" textLength="148.7305" x="281.3646" y="288.8007">protein expression data</text></g><g class="entity" data-entity="GMN72" data-source-line="148" data-uid="ent0073" id="entity_GMN72"><path d="M756.25,1364.8763 L756.25,1406.4779 A4.1667,4.1667 0 0 0 760.4167,1410.6445 L906.25,1410.6445 A4.1667,4.1667 0 0 0 910.4167,1406.4779 L910.4167,1371.1263 L900,1360.7096 L760.4167,1360.7096 A4.1667,4.1667 0 0 0 756.25,1364.8763" fill="#0073BB" style="stroke:#005C96;stroke-width:1.0417;"/><path d="M900,1360.7096 L900,1369.043 A2.0833,2.0833 0 0 0 902.0833,1371.1263 L910.4167,1371.1263 L900,1360.7096" fill="#0073BB" style="stroke:#005C96;stroke-width:1.0417;"/><text fill="#FFFFFF" font-family="'Verdana'" font-size="12.5" lengthAdjust="spacing" textLength="121.875" x="767.7083" y="1382.7291">Generates QC plots</text><text fill="#FFFFFF" font-family="'Verdana'" font-size="12.5" lengthAdjust="spacing" textLength="104.1626" x="767.7083" y="1397.2799">and h5ad output</text></g><g class="entity" data-entity="GMN75" data-source-line="149" data-uid="ent0076" id="entity_GMN75"><path d="M589.0833,1950.8451 L589.0833,1992.4466 A4.1667,4.1667 0 0 0 593.25,1996.6133 L752.566,1996.6133 A4.1667,4.1667 0 0 0 756.7327,1992.4466 L756.7327,1957.0951 L746.316,1946.6784 L678.3646,1946.6784 L680.8229,1822.1263 L670.0313,1946.6784 L593.25,1946.6784 A4.1667,4.1667 0 0 0 589.0833,1950.8451" fill="#0073BB" style="stroke:#005C96;stroke-width:1.0417;"/><path d="M746.316,1946.6784 L746.316,1955.0117 A2.0833,2.0833 0 0 0 748.3993,1957.0951 L756.7327,1957.0951 L746.316,1946.6784" fill="#0073BB" style="stroke:#005C96;stroke-width:1.0417;"/><text fill="#FFFFFF" font-family="'Verdana'" font-size="12.5" lengthAdjust="spacing" textLength="135.3577" x="600.5417" y="1968.6978">Creates volcano plots</text><text fill="#FFFFFF" font-family="'Verdana'" font-size="12.5" lengthAdjust="spacing" textLength="87.1582" x="600.5417" y="1983.2486">and DE tables</text></g><g class="entity" data-entity="GMN78" data-source-line="150" data-uid="ent0079" id="entity_GMN78"><path d="M1142.5729,1950.8451 L1142.5729,1967.4805 L1106.5104,1971.6471 L1142.5729,1975.8138 L1142.5729,1992.4466 A4.1667,4.1667 0 0 0 1146.7396,1996.6133 L1296.9919,1996.6133 A4.1667,4.1667 0 0 0 1301.1585,1992.4466 L1301.1585,1957.0951 L1290.7419,1946.6784 L1146.7396,1946.6784 A4.1667,4.1667 0 0 0 1142.5729,1950.8451" fill="#0073BB" style="stroke:#005C96;stroke-width:1.0417;"/><path d="M1290.7419,1946.6784 L1290.7419,1955.0117 A2.0833,2.0833 0 0 0 1292.8252,1957.0951 L1301.1585,1957.0951 L1290.7419,1946.6784" fill="#0073BB" style="stroke:#005C96;stroke-width:1.0417;"/><text fill="#FFFFFF" font-family="'Verdana'" font-size="12.5" lengthAdjust="spacing" textLength="113.916" x="1154.0313" y="1968.6978">Performs pathway</text><text fill="#FFFFFF" font-family="'Verdana'" font-size="12.5" lengthAdjust="spacing" textLength="126.2939" x="1154.0313" y="1983.2486">enrichment analysis</text></g><!--link AC to DL--><g class="link" data-entity-1="AC" data-entity-2="DL" data-source-line="127" data-uid="lnk54" id="link_AC_DL"><path d="M874.5208,305.7513 C857.8021,314.3555 838.8021,323.4076 820.8333,330.3138 C688.2292,381.2201 532.0047,418.4721 443.7443,437.5555" fill="none" id="AC-to-DL" style="stroke:#EC7211;stroke-width:3.125;"/><polygon fill="#EC7211" points="437.6354,438.8763,447.6792,440.9676,442.7261,437.7756,445.9181,432.8225,437.6354,438.8763" style="stroke:#EC7211;stroke-width:3.125;"/><text fill="#4E5D6C" font-family="'Verdana'" font-size="12.5" lengthAdjust="spacing" textLength="48.7244" x="804.1667" y="356.4999">triggers</text></g><!--link AC to LIMMA--><g class="link" data-entity-1="AC" data-entity-2="LIMMA" data-source-line="128" data-uid="lnk55" id="link_AC_LIMMA"><path d="M934.7917,305.7721 C947.1354,339.6576 965.625,399.2305 965.625,452.168 C965.625,452.168 965.625,452.168 965.625,1386.7201 C965.625,1491.2096 868.8021,1475.8763 780.2083,1531.2721 C755.9271,1546.4492 735.569,1562.7214 716.8711,1578.9922" fill="none" id="AC-to-LIMMA" style="stroke:#EC7211;stroke-width:3.125;"/><polygon fill="#EC7211" points="712.1563,1583.0951,721.9637,1580.0841,716.0853,1579.676,716.4933,1573.7976,712.1563,1583.0951" style="stroke:#EC7211;stroke-width:3.125;"/><text fill="#4E5D6C" font-family="'Verdana'" font-size="12.5" lengthAdjust="spacing" textLength="48.7244" x="971.875" y="920.6353">triggers</text></g><!--link AC to GSEA--><g class="link" data-entity-1="AC" data-entity-2="GSEA" data-source-line="129" data-uid="lnk56" id="link_AC_GSEA"><path d="M961.0938,305.793 C998.2708,336.8346 1050,391.0117 1050,452.168 C1050,452.168 1050,452.168 1050,1084.4284 C1050,1273.3867 1113.5417,1315.8451 1113.5417,1504.8034 C1113.5417,1504.8034 1113.5417,1504.8034 1113.5417,1794.6367 C1113.5417,1850.8034 1084.5419,1904.5144 1062.6356,1937.9206" fill="none" id="AC-to-GSEA" style="stroke:#EC7211;stroke-width:3.125;"/><polygon fill="#EC7211" points="1059.2083,1943.1471,1067.8336,1937.5923,1062.0644,1938.7917,1060.8649,1933.0225,1059.2083,1943.1471" style="stroke:#EC7211;stroke-width:3.125;"/><text fill="#4E5D6C" font-family="'Verdana'" font-size="12.5" lengthAdjust="spacing" textLength="48.7244" x="1056.25" y="1088.2187">triggers</text></g><!--link CM to DL--><g class="link" data-entity-1="CM" data-entity-2="DL" data-source-line="131" data-uid="lnk57" id="link_CM_DL"><path d="M607.0938,301.1159 C564.6563,310.6784 514.3646,321.5742 468.75,330.3138 C446.1667,334.6367 435.6042,324.2201 417.7083,338.6471 C391.4792,359.7826 381.612,392.3002 377.0912,418.571" fill="none" id="CM-to-DL" style="stroke:#EC7211;stroke-width:3.125;stroke-dasharray:7.2917,7.2917;"/><polygon fill="#EC7211" points="376.0313,424.7305,381.7275,416.1979,376.9145,419.5976,373.5149,414.7846,376.0313,424.7305" style="stroke:#EC7211;stroke-width:3.125;"/><text fill="#4E5D6C" font-family="'Verdana'" font-size="12.5" lengthAdjust="spacing" textLength="65.5151" x="423.9583" y="356.4999">configures</text></g><!--link CM to LIMMA--><g class="link" data-entity-1="CM" data-entity-2="LIMMA" data-source-line="132" data-uid="lnk58" id="link_CM_LIMMA"><path d="M643.1354,305.793 C589.9479,334.1159 521.875,383.7305 521.875,452.168 C521.875,452.168 521.875,452.168 521.875,825.7826 C521.875,1108.4909 433.1146,1200.5326 541.6667,1461.5742 C562.8229,1512.4596 604.9966,1552.415 638.8612,1579.0921" fill="none" id="CM-to-LIMMA" style="stroke:#EC7211;stroke-width:3.125;stroke-dasharray:7.2917,7.2917;"/><polygon fill="#EC7211" points="643.7708,1582.9596,638.9848,1573.8852,639.6795,1579.7366,633.828,1580.4313,643.7708,1582.9596" style="stroke:#EC7211;stroke-width:3.125;"/><text fill="#4E5D6C" font-family="'Verdana'" font-size="12.5" lengthAdjust="spacing" textLength="65.5151" x="526.0417" y="920.6353">configures</text></g><!--link CM to GSEA--><g class="link" data-entity-1="CM" data-entity-2="GSEA" data-source-line="133" data-uid="lnk59" id="link_CM_GSEA"><path d="M708.1875,305.6159 C720.0521,410.1992 767.8646,793.8555 861.4583,1096.4076 C919.9688,1285.5846 1039.5833,1306.7826 1039.5833,1504.8034 C1039.5833,1504.8034 1039.5833,1504.8034 1039.5833,1794.6367 C1039.5833,1847.1784 1039.5833,1902.3034 1039.5833,1936.9284" fill="none" id="CM-to-GSEA" style="stroke:#EC7211;stroke-width:3.125;stroke-dasharray:7.2917,7.2917;"/><polygon fill="#EC7211" points="1039.5833,1943.1784,1043.75,1933.8034,1039.5833,1937.9701,1035.4167,1933.8034,1039.5833,1943.1784" style="stroke:#EC7211;stroke-width:3.125;"/><text fill="#4E5D6C" font-family="'Verdana'" font-size="12.5" lengthAdjust="spacing" textLength="65.5151" x="867.7083" y="1088.2187">configures</text></g><!--link DL to NORM--><g class="link" data-entity-1="DL" data-entity-2="NORM" data-source-line="135" data-uid="lnk60" id="link_DL_NORM"><path d="M372.9167,481.4909 C372.9167,516.9076 372.9167,572.168 372.9167,607.7409" fill="none" id="DL-to-NORM" style="stroke:#EC7211;stroke-width:3.125;"/><polygon fill="#EC7211" points="372.9167,613.9909,377.0833,604.6159,372.9167,608.7826,368.75,604.6159,372.9167,613.9909" style="stroke:#EC7211;stroke-width:3.125;"/><text fill="#4E5D6C" font-family="'Verdana'" font-size="12.5" lengthAdjust="spacing" textLength="55.1514" x="379.1667" y="556.3853">raw data</text></g><!--link NORM to PM--><g class="link" data-entity-1="NORM" data-entity-2="PM" data-source-line="136" data-uid="lnk61" id="link_NORM_PM"><path d="M368.9583,671.0013 C364.0521,704.9388 356.6237,756.2844 351.7174,790.2115" fill="none" id="NORM-to-PM" style="stroke:#EC7211;stroke-width:3.125;"/><polygon fill="#EC7211" points="350.8229,796.3971,356.2885,787.715,351.5683,791.2424,348.0409,786.5223,350.8229,796.3971" style="stroke:#EC7211;stroke-width:3.125;"/><text fill="#4E5D6C" font-family="'Verdana'" font-size="12.5" lengthAdjust="spacing" textLength="101.8066" x="367.7083" y="738.5103">normalized data</text></g><!--link PM to BC--><g class="link" data-entity-1="PM" data-entity-2="BC" data-source-line="137" data-uid="lnk62" id="link_PM_BC"><path d="M346.875,853.1576 C346.875,885.418 346.875,932.4492 346.875,964.7721" fill="none" id="PM-to-BC" style="stroke:#EC7211;stroke-width:3.125;"/><polygon fill="#EC7211" points="346.875,971.0221,351.0417,961.6471,346.875,965.8138,342.7083,961.6471,346.875,971.0221" style="stroke:#EC7211;stroke-width:3.125;"/><text fill="#4E5D6C" font-family="'Verdana'" font-size="12.5" lengthAdjust="spacing" textLength="83.4595" x="353.125" y="920.6353">mapped data</text></g><!--link BC to FS--><g class="link" data-entity-1="BC" data-entity-2="FS" data-source-line="138" data-uid="lnk63" id="link_BC_FS"><path d="M346.3646,1028.1263 C346.1563,1040.9596 345.9375,1056.4388 345.8333,1070.3659 C345.6354,1095.9492 345.6374,1118.8555 345.6999,1139.6055" fill="none" id="BC-to-FS" style="stroke:#EC7211;stroke-width:3.125;"/><polygon fill="#EC7211" points="345.7188,1145.8555,349.8572,1136.468,345.7031,1140.6472,341.5239,1136.4931,345.7188,1145.8555" style="stroke:#EC7211;stroke-width:3.125;"/><text fill="#4E5D6C" font-family="'Verdana'" font-size="12.5" lengthAdjust="spacing" textLength="131.2805" x="352.0833" y="1088.2187">batch corrected data</text></g><!--link FS to VIZ--><g class="link" data-entity-1="FS" data-entity-2="VIZ" data-source-line="139" data-uid="lnk64" id="link_FS_VIZ"><path d="M338.5208,1202.8555 C334.0313,1223.7617 330.0625,1253.1992 335.4167,1278.5326 C341.3646,1306.7096 352.3432,1331.0113 363.4786,1351.8238" fill="none" id="FS-to-VIZ" style="stroke:#EC7211;stroke-width:3.125;"/><polygon fill="#EC7211" points="366.4271,1357.3346,365.6782,1347.1028,363.97,1352.7423,358.3305,1351.0341,366.4271,1357.3346" style="stroke:#EC7211;stroke-width:3.125;"/><text fill="#4E5D6C" font-family="'Verdana'" font-size="12.5" lengthAdjust="spacing" textLength="134.668" x="341.6667" y="1270.3437">scaled &amp; filtered data</text></g><!--link VIZ to LIMMA--><g class="link" data-entity-1="VIZ" data-entity-2="LIMMA" data-source-line="140" data-uid="lnk65" id="link_VIZ_LIMMA"><path d="M369.4063,1414.1992 C357.9271,1443.168 346.125,1488.6992 368.75,1518.8659 C397.8333,1557.6576 521.7972,1584.43 605.0056,1598.6175" fill="none" id="VIZ-to-LIMMA" style="stroke:#EC7211;stroke-width:3.125;"/><polygon fill="#EC7211" points="611.1667,1599.668,602.6254,1593.9848,606.0324,1598.7926,601.2247,1602.1996,611.1667,1599.668" style="stroke:#EC7211;stroke-width:3.125;"/><text fill="#4E5D6C" font-family="'Verdana'" font-size="12.5" lengthAdjust="spacing" textLength="96.0632" x="375" y="1510.677">processed data</text></g><!--link LIMMA to RG--><g class="link" data-entity-1="LIMMA" data-entity-2="RG" data-source-line="142" data-uid="lnk66" id="link_LIMMA_RG"><path d="M682.2917,1639.8451 C682.2917,1673.7826 682.2917,1725.0742 682.2917,1758.9909" fill="none" id="LIMMA-to-RG" style="stroke:#EC7211;stroke-width:3.125;"/><polygon fill="#EC7211" points="682.2917,1765.2409,686.4583,1755.8659,682.2917,1760.0326,678.125,1755.8659,682.2917,1765.2409" style="stroke:#EC7211;stroke-width:3.125;"/><text fill="#4E5D6C" font-family="'Verdana'" font-size="12.5" lengthAdjust="spacing" textLength="63.6475" x="688.5417" y="1721.9062">DE results</text></g><!--link RG to GSEA--><g class="link" data-entity-1="RG" data-entity-2="GSEA" data-source-line="143" data-uid="lnk67" id="link_RG_GSEA"><path d="M727.6563,1822.168 C744.5938,1831.3034 764.3229,1840.6784 783.3333,1846.6992 C815.4063,1856.8555 825.6458,1849.0534 858.3333,1857.0846 C869.3125,1859.7826 944.4896,1885.5846 954.1667,1891.4596 C977.3125,1905.5221 995.3295,1922.0233 1011.3399,1938.8671" fill="none" id="RG-to-GSEA" style="stroke:#EC7211;stroke-width:3.125;"/><polygon fill="#EC7211" points="1015.6458,1943.3971,1012.207,1933.7314,1012.0576,1939.6221,1006.1669,1939.4727,1015.6458,1943.3971" style="stroke:#EC7211;stroke-width:3.125;"/><text fill="#4E5D6C" font-family="'Verdana'" font-size="12.5" lengthAdjust="spacing" textLength="63.6475" x="939.5833" y="1874.9374">DE results</text></g><!--link RG to ENR--><g class="link" data-entity-1="RG" data-entity-2="ENR" data-source-line="144" data-uid="lnk68" id="link_RG_ENR"><path d="M710.7708,1822.1263 C745.0208,1855.1888 797.6385,1905.9941 831.7948,1938.9628" fill="none" id="RG-to-ENR" style="stroke:#EC7211;stroke-width:3.125;"/><polygon fill="#EC7211" points="836.2917,1943.3034,832.44,1933.7946,832.5443,1939.6863,826.6526,1939.7905,836.2917,1943.3034" style="stroke:#EC7211;stroke-width:3.125;"/><text fill="#4E5D6C" font-family="'Verdana'" font-size="12.5" lengthAdjust="spacing" textLength="63.6475" x="780.2083" y="1874.9374">DE results</text></g><!--link VIZ to GMN72--><g class="link" data-entity-1="VIZ" data-entity-2="GMN72" data-source-line="148" data-uid="lnk74" id="link_VIZ_GMN72"><path d="M412,1357.2096 C445.0417,1327.6888 501.5208,1283.4076 559.8958,1265.5117 C627.6146,1244.7513 654.1875,1237.5534 719.2708,1265.5117 C764.1979,1284.8138 799.75,1331.4701 818.5729,1360.6471" fill="none" id="VIZ-GMN72" style="stroke:#EC7211;stroke-width:3.125;stroke-dasharray:7.2917,7.2917;"/></g><!--SRC=[TLPDR-Cs4BthLqnps6u5U6zxwQ60xJX1W3Xr7M0FHG22baOMiHH9a5GIj-b_xmmbsP8T7nA8CwFvudjF_YNMs238jp2pNfezPb55ZR3nDg9jL15WenngPH2MZm-maLus6D47cC7IDiuQD17clgXLn2As7hFCoUAdt2FSd5wr9dghR-3V3A0uldOpDr8VWWf3W4P_0pB0V3cD8tUbzgsNKLa3QsaeVHUvN6V_ZIjwTDuM688oUrZRijLuKVLMHWcFLfPzZjl7gV_9-aPgzK_lVlfpkvu6fEqeRiIvFcXp5hAGiQXfBEzfAxQBMPnDTOUI5mRFg5CGV87dGWuxk7kUHlzGeHrrzUFXxydajwggq5EaaXfMxyxp3dXPd-_WKJMDX9NPq_MaV8yFw_Ly6hF5qEeOu1uDqkhxARRtaxehurLHDma5msrUgNd_l9gFI_9v6j4by-EWrTEMwndQE4Jhm5QCZZp_13fvdircihUBU708NzqO41ybVknih7-ZEEltqgZGmDVQDbO4wHIQyD6qGT1VqUesV50eUWv-HR-p0Ub9xOtrAF2zG2sqQbJCq9J0xKsR963c-QUuJMrE-X95YYDpYSFpMLQDLUIqXDKy7m4u9SFZTOkINCB9MASQ2QQ222l7zY0Rf_72F6t9jj6rKPJAawl-BajHAOs6s7-jjSIJF3-n9_KMVYed7BgeQ3Op-0P7Q9k9CKg_nyZc8QAXoaD4MkEryXikFcLcQe3g4YcgWoYaiKOHmKI_cC1mSKuVH6kKaxwWOixHy6GVBENkkBKt5K9wLNYiEkkLLXOCq3C5IBtis4Otd6p7ioh9fDl6aAMnvUXy9Jz9GvvVLOzKgKdtBbDA-Nvy96kfWkDnE5QmxrNgzkgbiipa-KbxEl0MaZkq_lZSCvWtsj8IXTEMvpF2eDhNE-j3EhaY72514SA-kzgogNj8YJI-OqYzHbj8F-3ph3zFQLE3dMxb-LZGkditZ5y6RSUh2Q2bCGdwwP-M1_GdRXDAJbX9xmRoY4hobhapOcYf68hKcIBBjTP8AVFyGaHJSzhkgqB4ccXRMrto7kaQHeQpdAHQqJQSD8bcde-qz4GpF6enYq8wf0btClGhDI9qHEEBxn-9A4qR4xU48U9TBSrIdETJZHvDqnKSHldiT0dhNs6BEfKEjN8XcozXDlk3L0v-XqYB9Bay6jDDVs9FgnYPi-KQldthanIz0jFylNb8S-df4uqS6UNW4YnjvF7o3NYVMJgpOyFceu2LdNVJ-HPByh6Y3FP5r-_TCzaJyw5NWY60F1n0dAE8HD2IM4qGfXzSGmmxnzle9NjmPvsT8xRtvBvTWUyGcD5vjAvB1rtlr4wtaxuqbRPlG8on7KZ2v3kNjhoYJ_01d5Nq4Q-iVp6zmiBfozIrDoL8DsZF30pmrn9O5iABaOGG_kX0nzfp9ARHbXxJMwzMCrt7hz8GX7gDOIfc_UWRzDHa4u25vKqUNio9E33yVlWV]--></g></svg>