<svg xmlns="http://www.w3.org/2000/svg" xmlns:xlink="http://www.w3.org/1999/xlink" contentStyleType="text/css" data-diagram-type="DESCRIPTION" height="1827.0833px" preserveAspectRatio="none" style="width:1294px;height:1827px;" version="1.1" viewBox="0 0 1294 1827" width="1294.7917px" zoomAndPan="magnify"><title>RNA-seq Pipeline CLI Parameters - Component Architecture</title><defs><linearGradient id="g2ypfivyq118b0" x1="50%" x2="50%" y1="0%" y2="100%"><stop offset="0%" stop-color="#FFFFFF"/><stop offset="100%" stop-color="#EEEEEE"/></linearGradient><linearGradient id="g2ypfivyq118b1" x1="50%" x2="50%" y1="0%" y2="100%"><stop offset="0%" stop-color="#F18E3E"/><stop offset="100%" stop-color="#EC7211"/></linearGradient></defs><g><g class="title" data-source-line="2"><rect fill="url(#g2ypfivyq118b0)" height="45.0846" rx="4.1667" ry="4.1667" style="stroke:#EEEEEE;stroke-width:1.0417;" width="720.6014" x="280.0435" y="5.2083"/><text fill="#EC7211" font-family="'Verdana'" font-size="20.8333" font-weight="bold" lengthAdjust="spacing" textLength="699.7681" x="290.4602" y="34.963">RNA-seq Pipeline CLI Parameters - Component Architecture</text></g><!--cluster Pipeline Control--><g class="cluster" data-entity="Pipeline Control" data-source-line="4" data-uid="ent0002" id="cluster_Pipeline Control"><path d="M449.8854,205.3346 L571.0605,205.3346 A6.25,6.25 0 0 1 575.2272,209.5013 L582.5189,236.5521 L875.9271,236.5521 A4.1667,4.1667 0 0 1 880.0938,240.7187 L880.0938,317.8034 A4.1667,4.1667 0 0 1 875.9271,321.9701 L449.8854,321.9701 A4.1667,4.1667 0 0 1 445.7188,317.8034 L445.7188,209.5013 A4.1667,4.1667 0 0 1 449.8854,205.3346" fill="none" style="stroke:#4E5D6C;stroke-width:2.0833;"/><line style="stroke:#4E5D6C;stroke-width:2.0833;" x1="445.7188" x2="582.5189" y1="236.5521" y2="236.5521"/><text fill="#4E5D6C" font-family="'Verdana'" font-size="12.5" font-weight="bold" lengthAdjust="spacing" textLength="112.8418" x="455.0938" y="224.2291">Pipeline Control</text></g><!--cluster Preprocessing Module--><g class="cluster" data-entity="Preprocessing Module" data-source-line="9" data-uid="ent0005" id="cluster_Preprocessing Module"><path d="M308.2188,392.6888 L472.9425,392.6888 A6.25,6.25 0 0 1 477.1091,396.8555 L484.4008,423.9063 L489.4688,423.9063 A4.1667,4.1667 0 0 1 493.6354,428.0729 L493.6354,1080.6471 A4.1667,4.1667 0 0 1 489.4688,1084.8138 L308.2188,1084.8138 A4.1667,4.1667 0 0 1 304.0521,1080.6471 L304.0521,396.8555 A4.1667,4.1667 0 0 1 308.2188,392.6888" fill="none" style="stroke:#4E5D6C;stroke-width:2.0833;"/><line style="stroke:#4E5D6C;stroke-width:2.0833;" x1="304.0521" x2="484.4008" y1="423.9063" y2="423.9063"/><text fill="#4E5D6C" font-family="'Verdana'" font-size="12.5" font-weight="bold" lengthAdjust="spacing" textLength="156.3904" x="313.4271" y="411.5833">Preprocessing Module</text></g><!--cluster Differential Expression Module--><g class="cluster" data-entity="Differential Expression Module" data-source-line="16" data-uid="ent0010" id="cluster_Differential Expression Module"><path d="M392.5938,1186.6888 L618.6456,1186.6888 A6.25,6.25 0 0 1 622.8123,1190.8555 L630.1039,1217.9063 L629.0521,1217.9063 A4.1667,4.1667 0 0 1 633.2188,1222.0729 L633.2188,1481.2826 A4.1667,4.1667 0 0 1 629.0521,1485.4492 L392.5938,1485.4492 A4.1667,4.1667 0 0 1 388.4271,1481.2826 L388.4271,1190.8555 A4.1667,4.1667 0 0 1 392.5938,1186.6888" fill="none" style="stroke:#4E5D6C;stroke-width:2.0833;"/><line style="stroke:#4E5D6C;stroke-width:2.0833;" x1="388.4271" x2="630.1039" y1="1217.9063" y2="1217.9063"/><text fill="#4E5D6C" font-family="'Verdana'" font-size="12.5" font-weight="bold" lengthAdjust="spacing" textLength="217.7185" x="397.8021" y="1205.5833">Differential Expression Module</text></g><!--cluster Enrichment Analysis Module--><g class="cluster" data-entity="Enrichment Analysis Module" data-source-line="21" data-uid="ent0013" id="cluster_Enrichment Analysis Module"><path d="M578.0104,1546.8763 L785.8616,1546.8763 A6.25,6.25 0 0 1 790.0282,1551.043 L797.3199,1578.0938 L916.5521,1578.0938 A4.1667,4.1667 0 0 1 920.7188,1582.2604 L920.7188,1659.3451 A4.1667,4.1667 0 0 1 916.5521,1663.5117 L578.0104,1663.5117 A4.1667,4.1667 0 0 1 573.8438,1659.3451 L573.8438,1551.043 A4.1667,4.1667 0 0 1 578.0104,1546.8763" fill="none" style="stroke:#4E5D6C;stroke-width:2.0833;"/><line style="stroke:#4E5D6C;stroke-width:2.0833;" x1="573.8438" x2="797.3199" y1="1578.0938" y2="1578.0938"/><text fill="#4E5D6C" font-family="'Verdana'" font-size="12.5" font-weight="bold" lengthAdjust="spacing" textLength="199.5178" x="583.2188" y="1565.7708">Enrichment Analysis Module</text></g><!--entity AC--><g class="entity" data-entity="AC" data-source-line="5" data-uid="ent0003" id="entity_AC"><rect fill="url(#g2ypfivyq118b1)" height="56.2174" rx="4.1667" ry="4.1667" style="stroke:#EC7211;stroke-width:1.0417;" width="169.3197" x="694.3958" y="249.0846"/><rect fill="url(#g2ypfivyq118b1)" height="10.4167" style="stroke:#EC7211;stroke-width:1.0417;" width="15.625" x="842.8822" y="254.293"/><rect fill="url(#g2ypfivyq118b1)" height="2.0833" style="stroke:#EC7211;stroke-width:1.0417;" width="4.1667" x="840.7988" y="256.3763"/><rect fill="url(#g2ypfivyq118b1)" height="2.0833" style="stroke:#EC7211;stroke-width:1.0417;" width="4.1667" x="840.7988" y="260.543"/><text fill="#FFFFFF" font-family="'Verdana'" font-size="12.5" lengthAdjust="spacing" textLength="117.2363" x="715.2292" y="286.7291">Analysis Controller</text></g><!--entity CM--><g class="entity" data-entity="CM" data-source-line="6" data-uid="ent0004" id="entity_CM"><rect fill="url(#g2ypfivyq118b1)" height="56.2174" rx="4.1667" ry="4.1667" style="stroke:#EC7211;stroke-width:1.0417;" width="195.6197" x="462.4896" y="249.0846"/><rect fill="url(#g2ypfivyq118b1)" height="10.4167" style="stroke:#EC7211;stroke-width:1.0417;" width="15.625" x="637.276" y="254.293"/><rect fill="url(#g2ypfivyq118b1)" height="2.0833" style="stroke:#EC7211;stroke-width:1.0417;" width="4.1667" x="635.1926" y="256.3763"/><rect fill="url(#g2ypfivyq118b1)" height="2.0833" style="stroke:#EC7211;stroke-width:1.0417;" width="4.1667" x="635.1926" y="260.543"/><text fill="#FFFFFF" font-family="'Verdana'" font-size="12.5" lengthAdjust="spacing" textLength="143.5364" x="483.3229" y="286.7291">Configuration Manager</text></g><!--entity DL--><g class="entity" data-entity="DL" data-source-line="10" data-uid="ent0006" id="entity_DL"><rect fill="url(#g2ypfivyq118b1)" height="56.2174" rx="4.1667" ry="4.1667" style="stroke:#EC7211;stroke-width:1.0417;" width="128.9388" x="346.875" y="436.4388"/><rect fill="url(#g2ypfivyq118b1)" height="10.4167" style="stroke:#EC7211;stroke-width:1.0417;" width="15.625" x="454.9805" y="441.6471"/><rect fill="url(#g2ypfivyq118b1)" height="2.0833" style="stroke:#EC7211;stroke-width:1.0417;" width="4.1667" x="452.8971" y="443.7305"/><rect fill="url(#g2ypfivyq118b1)" height="2.0833" style="stroke:#EC7211;stroke-width:1.0417;" width="4.1667" x="452.8971" y="447.8971"/><text fill="#FFFFFF" font-family="'Verdana'" font-size="12.5" lengthAdjust="spacing" textLength="76.8555" x="367.7083" y="474.0833">Data Loader</text></g><!--entity NORM--><g class="entity" data-entity="NORM" data-source-line="11" data-uid="ent0007" id="entity_NORM"><rect fill="url(#g2ypfivyq118b1)" height="56.2174" rx="4.1667" ry="4.1667" style="stroke:#EC7211;stroke-width:1.0417;" width="120.3939" x="350.1042" y="647.668"/><rect fill="url(#g2ypfivyq118b1)" height="10.4167" style="stroke:#EC7211;stroke-width:1.0417;" width="15.625" x="449.6647" y="652.8763"/><rect fill="url(#g2ypfivyq118b1)" height="2.0833" style="stroke:#EC7211;stroke-width:1.0417;" width="4.1667" x="447.5814" y="654.9596"/><rect fill="url(#g2ypfivyq118b1)" height="2.0833" style="stroke:#EC7211;stroke-width:1.0417;" width="4.1667" x="447.5814" y="659.1263"/><text fill="#FFFFFF" font-family="'Verdana'" font-size="12.5" lengthAdjust="spacing" textLength="68.3105" x="370.9375" y="685.3124">Normalizer</text></g><!--entity FS--><g class="entity" data-entity="FS" data-source-line="12" data-uid="ent0008" id="entity_FS"><rect fill="url(#g2ypfivyq118b1)" height="56.2174" rx="4.1667" ry="4.1667" style="stroke:#EC7211;stroke-width:1.0417;" width="155.599" x="321.0417" y="822.5221"/><rect fill="url(#g2ypfivyq118b1)" height="10.4167" style="stroke:#EC7211;stroke-width:1.0417;" width="15.625" x="455.8073" y="827.7305"/><rect fill="url(#g2ypfivyq118b1)" height="2.0833" style="stroke:#EC7211;stroke-width:1.0417;" width="4.1667" x="453.724" y="829.8138"/><rect fill="url(#g2ypfivyq118b1)" height="2.0833" style="stroke:#EC7211;stroke-width:1.0417;" width="4.1667" x="453.724" y="833.9805"/><text fill="#FFFFFF" font-family="'Verdana'" font-size="12.5" lengthAdjust="spacing" textLength="103.5156" x="341.875" y="860.1666">Feature Selector</text></g><!--entity VIZ--><g class="entity" data-entity="VIZ" data-source-line="13" data-uid="ent0009" id="entity_VIZ"><rect fill="url(#g2ypfivyq118b1)" height="56.2174" rx="4.1667" ry="4.1667" style="stroke:#EC7211;stroke-width:1.0417;" width="112.5387" x="344.6563" y="1011.9284"/><rect fill="url(#g2ypfivyq118b1)" height="10.4167" style="stroke:#EC7211;stroke-width:1.0417;" width="15.625" x="436.3616" y="1017.1367"/><rect fill="url(#g2ypfivyq118b1)" height="2.0833" style="stroke:#EC7211;stroke-width:1.0417;" width="4.1667" x="434.2782" y="1019.2201"/><rect fill="url(#g2ypfivyq118b1)" height="2.0833" style="stroke:#EC7211;stroke-width:1.0417;" width="4.1667" x="434.2782" y="1023.3867"/><text fill="#FFFFFF" font-family="'Verdana'" font-size="12.5" lengthAdjust="spacing" textLength="60.4553" x="365.4896" y="1049.5728">Visualizer</text></g><!--entity DE--><g class="entity" data-entity="DE" data-source-line="17" data-uid="ent0011" id="entity_DE"><rect fill="url(#g2ypfivyq118b1)" height="56.2174" rx="4.1667" ry="4.1667" style="stroke:#EC7211;stroke-width:1.0417;" width="147.9329" x="460.2917" y="1230.4388"/><rect fill="url(#g2ypfivyq118b1)" height="10.4167" style="stroke:#EC7211;stroke-width:1.0417;" width="15.625" x="587.3913" y="1235.6471"/><rect fill="url(#g2ypfivyq118b1)" height="2.0833" style="stroke:#EC7211;stroke-width:1.0417;" width="4.1667" x="585.3079" y="1237.7305"/><rect fill="url(#g2ypfivyq118b1)" height="2.0833" style="stroke:#EC7211;stroke-width:1.0417;" width="4.1667" x="585.3079" y="1241.8971"/><text fill="#FFFFFF" font-family="'Verdana'" font-size="12.5" lengthAdjust="spacing" textLength="95.8496" x="481.125" y="1268.0833">DESeq2 Engine</text></g><!--entity RG--><g class="entity" data-entity="RG" data-source-line="18" data-uid="ent0012" id="entity_RG"><rect fill="url(#g2ypfivyq118b1)" height="56.2174" rx="4.1667" ry="4.1667" style="stroke:#EC7211;stroke-width:1.0417;" width="165.2303" x="451.6458" y="1412.5638"/><rect fill="url(#g2ypfivyq118b1)" height="10.4167" style="stroke:#EC7211;stroke-width:1.0417;" width="15.625" x="596.0428" y="1417.7721"/><rect fill="url(#g2ypfivyq118b1)" height="2.0833" style="stroke:#EC7211;stroke-width:1.0417;" width="4.1667" x="593.9595" y="1419.8555"/><rect fill="url(#g2ypfivyq118b1)" height="2.0833" style="stroke:#EC7211;stroke-width:1.0417;" width="4.1667" x="593.9595" y="1424.0221"/><text fill="#FFFFFF" font-family="'Verdana'" font-size="12.5" lengthAdjust="spacing" textLength="113.147" x="472.4792" y="1450.2083">Results Generator</text></g><!--entity GSEA--><g class="entity" data-entity="GSEA" data-source-line="22" data-uid="ent0014" id="entity_GSEA"><rect fill="url(#g2ypfivyq118b1)" height="56.2174" rx="4.1667" ry="4.1667" style="stroke:#EC7211;stroke-width:1.0417;" width="132.9671" x="770.9063" y="1590.6263"/><rect fill="url(#g2ypfivyq118b1)" height="10.4167" style="stroke:#EC7211;stroke-width:1.0417;" width="15.625" x="883.04" y="1595.8346"/><rect fill="url(#g2ypfivyq118b1)" height="2.0833" style="stroke:#EC7211;stroke-width:1.0417;" width="4.1667" x="880.9567" y="1597.918"/><rect fill="url(#g2ypfivyq118b1)" height="2.0833" style="stroke:#EC7211;stroke-width:1.0417;" width="4.1667" x="880.9567" y="1602.0846"/><text fill="#FFFFFF" font-family="'Verdana'" font-size="12.5" lengthAdjust="spacing" textLength="80.8838" x="791.7396" y="1628.2708">GSEA Engine</text></g><!--entity ENR--><g class="entity" data-entity="ENR" data-source-line="23" data-uid="ent0015" id="entity_ENR"><rect fill="url(#g2ypfivyq118b1)" height="56.2174" rx="4.1667" ry="4.1667" style="stroke:#EC7211;stroke-width:1.0417;" width="143.2638" x="590.75" y="1590.6263"/><rect fill="url(#g2ypfivyq118b1)" height="10.4167" style="stroke:#EC7211;stroke-width:1.0417;" width="15.625" x="713.1804" y="1595.8346"/><rect fill="url(#g2ypfivyq118b1)" height="2.0833" style="stroke:#EC7211;stroke-width:1.0417;" width="4.1667" x="711.0971" y="1597.918"/><rect fill="url(#g2ypfivyq118b1)" height="2.0833" style="stroke:#EC7211;stroke-width:1.0417;" width="4.1667" x="711.0971" y="1602.0846"/><text fill="#FFFFFF" font-family="'Verdana'" font-size="12.5" lengthAdjust="spacing" textLength="91.1804" x="611.5833" y="1628.2708">Enrichr Engine</text></g><g class="entity" data-entity="GMN16" data-source-line="27" data-uid="ent0017" id="entity_GMN16"><path d="M652.3438,66.9596 L652.3438,152.2135 A4.1667,4.1667 0 0 0 656.5104,156.3802 L804.9479,156.3802 L785.9167,248.9076 L813.2813,156.3802 L984.9304,156.3802 A4.1667,4.1667 0 0 0 989.0971,152.2135 L989.0971,73.2096 L978.6804,62.793 L656.5104,62.793 A4.1667,4.1667 0 0 0 652.3438,66.9596" fill="#0073BB" style="stroke:#005C96;stroke-width:1.0417;"/><path d="M978.6804,62.793 L978.6804,71.1263 A2.0833,2.0833 0 0 0 980.7638,73.2096 L989.0971,73.2096 L978.6804,62.793" fill="#0073BB" style="stroke:#005C96;stroke-width:1.0417;"/><text fill="#FFFFFF" font-family="'Verdana'" font-size="12.5" font-weight="bold" lengthAdjust="spacing" textLength="133.5571" x="663.8021" y="84.8124">Analysis Controller</text><text fill="#FFFFFF" font-family="'Verdana'" font-size="12.5" lengthAdjust="spacing" textLength="248.3887" x="663.8021" y="99.3632">--analysis_type (preprocessing|de|both)</text><text fill="#FFFFFF" font-family="'Verdana'" font-size="12.5" lengthAdjust="spacing" textLength="304.4617" x="663.8021" y="113.914">--organism (homo_sapiens|mus_musculus|other)</text><text fill="#FFFFFF" font-family="'Verdana'" font-size="12.5" lengthAdjust="spacing" textLength="59.0332" x="663.8021" y="128.4648">--verbose</text><text fill="#FFFFFF" font-family="'Verdana'" font-size="12.5" lengthAdjust="spacing" textLength="121.9482" x="663.8021" y="143.0155">--ignore_excel_limit</text></g><g class="entity" data-entity="GMN19" data-source-line="35" data-uid="ent0020" id="entity_GMN19"><path d="M421.125,81.5117 L421.125,137.6641 A4.1667,4.1667 0 0 0 425.2917,141.8307 L522.4063,141.8307 L553.3646,248.5951 L530.7396,141.8307 L611.9758,141.8307 A4.1667,4.1667 0 0 0 616.1425,137.6641 L616.1425,87.7617 L605.7258,77.3451 L425.2917,77.3451 A4.1667,4.1667 0 0 0 421.125,81.5117" fill="#0073BB" style="stroke:#005C96;stroke-width:1.0417;"/><path d="M605.7258,77.3451 L605.7258,85.6784 A2.0833,2.0833 0 0 0 607.8092,87.7617 L616.1425,87.7617 L605.7258,77.3451" fill="#0073BB" style="stroke:#005C96;stroke-width:1.0417;"/><text fill="#FFFFFF" font-family="'Verdana'" font-size="12.5" font-weight="bold" lengthAdjust="spacing" textLength="162.7258" x="432.5833" y="99.3645">Configuration Manager</text><text fill="#FFFFFF" font-family="'Verdana'" font-size="12.5" lengthAdjust="spacing" textLength="141.925" x="432.5833" y="113.9153">--preprocessing_config</text><text fill="#FFFFFF" font-family="'Verdana'" font-size="12.5" lengthAdjust="spacing" textLength="69.1467" x="432.5833" y="128.4661">--de_config</text></g><g class="entity" data-entity="GMN22" data-source-line="41" data-uid="ent0023" id="entity_GMN22"><path d="M6.25,400.0951 L6.25,529.0013 A4.1667,4.1667 0 0 0 10.4167,533.168 L283.1055,533.168 A4.1667,4.1667 0 0 0 287.2721,529.0013 L287.2721,468.7201 L346.4271,464.5534 L287.2721,460.3867 L287.2721,406.3451 L276.8555,395.9284 L10.4167,395.9284 A4.1667,4.1667 0 0 0 6.25,400.0951" fill="#0073BB" style="stroke:#005C96;stroke-width:1.0417;"/><path d="M276.8555,395.9284 L276.8555,404.2617 A2.0833,2.0833 0 0 0 278.9388,406.3451 L287.2721,406.3451 L276.8555,395.9284" fill="#0073BB" style="stroke:#005C96;stroke-width:1.0417;"/><text fill="#FFFFFF" font-family="'Verdana'" font-size="12.5" font-weight="bold" lengthAdjust="spacing" textLength="86.1511" x="17.7083" y="417.9478">Data Loader</text><text fill="#FFFFFF" font-family="'Verdana'" font-size="12.5" lengthAdjust="spacing" textLength="154.8523" x="17.7083" y="432.4986">--feature_counts_pattern</text><text fill="#FFFFFF" font-family="'Verdana'" font-size="12.5" lengthAdjust="spacing" textLength="155.9692" x="17.7083" y="447.0494">--sample_metadata_path</text><text fill="#FFFFFF" font-family="'Verdana'" font-size="12.5" lengthAdjust="spacing" textLength="104.6204" x="17.7083" y="461.6002">--gene_info_path</text><text fill="#FFFFFF" font-family="'Verdana'" font-size="12.5" lengthAdjust="spacing" textLength="104.1199" x="17.7083" y="476.151">--mitocarta_path</text><text fill="#FFFFFF" font-family="'Verdana'" font-size="12.5" lengthAdjust="spacing" textLength="248.7305" x="17.7083" y="490.7017">--lncRNAs_and_prot_coding_genes_path</text><text fill="#FFFFFF" font-family="'Verdana'" font-size="12.5" lengthAdjust="spacing" textLength="101.2268" x="17.7083" y="505.2525">--h5ad_filename</text><text fill="#FFFFFF" font-family="'Verdana'" font-size="12.5" lengthAdjust="spacing" textLength="167.7002" x="17.7083" y="519.8033">--preprocessing_output_dir</text></g><g class="entity" data-entity="GMN25" data-source-line="52" data-uid="ent0026" id="entity_GMN25"><path d="M1007.6354,625.8763 L1007.6354,671.6159 L470.8021,675.7826 L1007.6354,679.9492 L1007.6354,725.681 A4.1667,4.1667 0 0 0 1011.8021,729.8477 L1283.8134,729.8477 A4.1667,4.1667 0 0 0 1287.9801,725.681 L1287.9801,632.1263 L1277.5634,621.7096 L1011.8021,621.7096 A4.1667,4.1667 0 0 0 1007.6354,625.8763" fill="#0073BB" style="stroke:#005C96;stroke-width:1.0417;"/><path d="M1277.5634,621.7096 L1277.5634,630.043 A2.0833,2.0833 0 0 0 1279.6467,632.1263 L1287.9801,632.1263 L1277.5634,621.7096" fill="#0073BB" style="stroke:#005C96;stroke-width:1.0417;"/><text fill="#FFFFFF" font-family="'Verdana'" font-size="12.5" font-weight="bold" lengthAdjust="spacing" textLength="77.1606" x="1019.0938" y="643.7291">Normalizer</text><text fill="#FFFFFF" font-family="'Verdana'" font-size="12.5" lengthAdjust="spacing" textLength="110.1624" x="1019.0938" y="658.2799">--transcript_types</text><text fill="#FFFFFF" font-family="'Verdana'" font-size="12.5" lengthAdjust="spacing" textLength="248.053" x="1019.0938" y="672.8306">--mean_threshold_for_expressed_genes</text><text fill="#FFFFFF" font-family="'Verdana'" font-size="12.5" lengthAdjust="spacing" textLength="115.4175" x="1019.0938" y="687.3814">--apply_sum_norm</text><text fill="#FFFFFF" font-family="'Verdana'" font-size="12.5" lengthAdjust="spacing" textLength="80.1086" x="1019.0938" y="701.9322">--target_sum</text><text fill="#FFFFFF" font-family="'Verdana'" font-size="12.5" lengthAdjust="spacing" textLength="115.1062" x="1019.0938" y="716.483">--scale_max_value</text></g><g class="entity" data-entity="GMN28" data-source-line="61" data-uid="ent0029" id="entity_GMN28"><path d="M1007.1771,822.5638 L1007.1771,846.4701 L476.9167,850.6367 L1007.1771,854.8034 L1007.1771,878.7161 A4.1667,4.1667 0 0 0 1011.3438,882.8828 L1153.0023,882.8828 A4.1667,4.1667 0 0 0 1157.1689,878.7161 L1157.1689,828.8138 L1146.7523,818.3971 L1011.3438,818.3971 A4.1667,4.1667 0 0 0 1007.1771,822.5638" fill="#0073BB" style="stroke:#005C96;stroke-width:1.0417;"/><path d="M1146.7523,818.3971 L1146.7523,826.7305 A2.0833,2.0833 0 0 0 1148.8356,828.8138 L1157.1689,828.8138 L1146.7523,818.3971" fill="#0073BB" style="stroke:#005C96;stroke-width:1.0417;"/><text fill="#FFFFFF" font-family="'Verdana'" font-size="12.5" font-weight="bold" lengthAdjust="spacing" textLength="117.7002" x="1018.6354" y="840.4166">Feature Selector</text><text fill="#FFFFFF" font-family="'Verdana'" font-size="12.5" lengthAdjust="spacing" textLength="77.9541" x="1018.6354" y="854.9674">--max_mean</text><text fill="#FFFFFF" font-family="'Verdana'" font-size="12.5" lengthAdjust="spacing" textLength="64.6973" x="1018.6354" y="869.5181">--min_disp</text></g><g class="entity" data-entity="GMN31" data-source-line="67" data-uid="ent0032" id="entity_GMN31"><path d="M662.5833,975.5846 L662.5833,1035.8763 L457.6458,1040.043 L662.5833,1044.2096 L662.5833,1104.4909 A4.1667,4.1667 0 0 0 666.75,1108.6576 L818.4366,1108.6576 A4.1667,4.1667 0 0 0 822.6033,1104.4909 L822.6033,981.8346 L812.1866,971.418 L666.75,971.418 A4.1667,4.1667 0 0 0 662.5833,975.5846" fill="#0073BB" style="stroke:#005C96;stroke-width:1.0417;"/><path d="M812.1866,971.418 L812.1866,979.7513 A2.0833,2.0833 0 0 0 814.2699,981.8346 L822.6033,981.8346 L812.1866,971.418" fill="#0073BB" style="stroke:#005C96;stroke-width:1.0417;"/><text fill="#FFFFFF" font-family="'Verdana'" font-size="12.5" font-weight="bold" lengthAdjust="spacing" textLength="69.22" x="674.0417" y="993.4374">Visualizer</text><text fill="#FFFFFF" font-family="'Verdana'" font-size="12.5" lengthAdjust="spacing" textLength="68.5181" x="674.0417" y="1007.9882">--pca_color</text><text fill="#FFFFFF" font-family="'Verdana'" font-size="12.5" lengthAdjust="spacing" textLength="114.9658" x="674.0417" y="1022.539">--pca_components</text><text fill="#FFFFFF" font-family="'Verdana'" font-size="12.5" lengthAdjust="spacing" textLength="74.9207" x="674.0417" y="1037.0898">--umap_plot</text><text fill="#FFFFFF" font-family="'Verdana'" font-size="12.5" lengthAdjust="spacing" textLength="85.3699" x="674.0417" y="1051.6405">--n_neighbors</text><text fill="#FFFFFF" font-family="'Verdana'" font-size="12.5" lengthAdjust="spacing" textLength="44.5129" x="674.0417" y="1066.1913">--n_pcs</text><text fill="#FFFFFF" font-family="'Verdana'" font-size="12.5" lengthAdjust="spacing" textLength="115.6982" x="674.0417" y="1080.7421">--skip_plot_oxphos</text><text fill="#FFFFFF" font-family="'Verdana'" font-size="12.5" lengthAdjust="spacing" textLength="127.7283" x="674.0417" y="1095.2929">--oxphos_complexes</text></g><g class="entity" data-entity="GMN34" data-source-line="78" data-uid="ent0035" id="entity_GMN34"><path d="M650.0729,1201.3659 L650.0729,1254.3763 L608.4688,1258.543 L650.0729,1262.7096 L650.0729,1315.7214 A4.1667,4.1667 0 0 0 654.2396,1319.888 L818.4567,1319.888 A4.1667,4.1667 0 0 0 822.6234,1315.7214 L822.6234,1207.6159 L812.2067,1197.1992 L654.2396,1197.1992 A4.1667,4.1667 0 0 0 650.0729,1201.3659" fill="#0073BB" style="stroke:#005C96;stroke-width:1.0417;"/><path d="M812.2067,1197.1992 L812.2067,1205.5326 A2.0833,2.0833 0 0 0 814.29,1207.6159 L822.6234,1207.6159 L812.2067,1197.1992" fill="#0073BB" style="stroke:#005C96;stroke-width:1.0417;"/><text fill="#FFFFFF" font-family="'Verdana'" font-size="12.5" font-weight="bold" lengthAdjust="spacing" textLength="106.4392" x="661.5313" y="1219.2187">DESeq2 Engine</text><text fill="#FFFFFF" font-family="'Verdana'" font-size="12.5" lengthAdjust="spacing" textLength="66.4612" x="661.5313" y="1233.7694">--input_file</text><text fill="#FFFFFF" font-family="'Verdana'" font-size="12.5" lengthAdjust="spacing" textLength="132.6965" x="661.5313" y="1248.3202">--anndata_data_layer</text><text fill="#FFFFFF" font-family="'Verdana'" font-size="12.5" lengthAdjust="spacing" textLength="73.0469" x="661.5313" y="1262.871">--output_dir</text><text fill="#FFFFFF" font-family="'Verdana'" font-size="12.5" lengthAdjust="spacing" textLength="140.2588" x="661.5313" y="1277.4218">--skip_expressed_filter</text><text fill="#FFFFFF" font-family="'Verdana'" font-size="12.5" lengthAdjust="spacing" textLength="99.8718" x="661.5313" y="1291.9726">--design_factors</text><text fill="#FFFFFF" font-family="'Verdana'" font-size="12.5" lengthAdjust="spacing" textLength="103.7842" x="661.5313" y="1306.5234">--condition_pairs</text></g><g class="entity" data-entity="GMN37" data-source-line="88" data-uid="ent0038" id="entity_GMN37"><path d="M653.1042,1412.5951 L653.1042,1436.5117 L617.0313,1440.6784 L653.1042,1444.8451 L653.1042,1468.7474 A4.1667,4.1667 0 0 0 657.2708,1472.9141 L809.165,1472.9141 A4.1667,4.1667 0 0 0 813.3316,1468.7474 L813.3316,1418.8451 L802.915,1408.4284 L657.2708,1408.4284 A4.1667,4.1667 0 0 0 653.1042,1412.5951" fill="#0073BB" style="stroke:#005C96;stroke-width:1.0417;"/><path d="M802.915,1408.4284 L802.915,1416.7617 A2.0833,2.0833 0 0 0 804.9983,1418.8451 L813.3316,1418.8451 L802.915,1408.4284" fill="#0073BB" style="stroke:#005C96;stroke-width:1.0417;"/><text fill="#FFFFFF" font-family="'Verdana'" font-size="12.5" font-weight="bold" lengthAdjust="spacing" textLength="127.9358" x="664.5625" y="1430.4478">Results Generator</text><text fill="#FFFFFF" font-family="'Verdana'" font-size="12.5" lengthAdjust="spacing" textLength="104.7424" x="664.5625" y="1444.9986">--logfc_threshold</text><text fill="#FFFFFF" font-family="'Verdana'" font-size="12.5" lengthAdjust="spacing" textLength="100.8789" x="664.5625" y="1459.5494">--pval_threshold</text></g><g class="entity" data-entity="GMN40" data-source-line="94" data-uid="ent0041" id="entity_GMN40"><path d="M771.3229,1716.6367 L771.3229,1816.4414 A4.1667,4.1667 0 0 0 775.4896,1820.6081 L920.1083,1820.6081 A4.1667,4.1667 0 0 0 924.275,1816.4414 L924.275,1722.8867 L913.8583,1712.4701 L848.1667,1712.4701 L839.3438,1647.1888 L839.8333,1712.4701 L775.4896,1712.4701 A4.1667,4.1667 0 0 0 771.3229,1716.6367" fill="#0073BB" style="stroke:#005C96;stroke-width:1.0417;"/><path d="M913.8583,1712.4701 L913.8583,1720.8034 A2.0833,2.0833 0 0 0 915.9417,1722.8867 L924.275,1722.8867 L913.8583,1712.4701" fill="#0073BB" style="stroke:#005C96;stroke-width:1.0417;"/><text fill="#FFFFFF" font-family="'Verdana'" font-size="12.5" font-weight="bold" lengthAdjust="spacing" textLength="89.8743" x="782.7813" y="1734.4895">GSEA Engine</text><text fill="#FFFFFF" font-family="'Verdana'" font-size="12.5" lengthAdjust="spacing" textLength="112.1399" x="782.7813" y="1749.0403">--skip_enrichment</text><text fill="#FFFFFF" font-family="'Verdana'" font-size="12.5" lengthAdjust="spacing" textLength="118.7561" x="782.7813" y="1763.5911">--enrich_databases</text><text fill="#FFFFFF" font-family="'Verdana'" font-size="12.5" lengthAdjust="spacing" textLength="63.0798" x="782.7813" y="1778.1418">--min_size</text><text fill="#FFFFFF" font-family="'Verdana'" font-size="12.5" lengthAdjust="spacing" textLength="66.7419" x="782.7813" y="1792.6926">--max_size</text><text fill="#FFFFFF" font-family="'Verdana'" font-size="12.5" lengthAdjust="spacing" textLength="120.6604" x="782.7813" y="1807.2434">--permutation_num</text></g><g class="entity" data-entity="GMN43" data-source-line="103" data-uid="ent0044" id="entity_GMN43"><path d="M569.3125,1731.1888 L569.3125,1801.8919 A4.1667,4.1667 0 0 0 573.4792,1806.0586 L730.4575,1806.0586 A4.1667,4.1667 0 0 0 734.6242,1801.8919 L734.6242,1737.4388 L724.2075,1727.0221 L658.9167,1727.0221 L660.4271,1647.1888 L650.5833,1727.0221 L573.4792,1727.0221 A4.1667,4.1667 0 0 0 569.3125,1731.1888" fill="#0073BB" style="stroke:#005C96;stroke-width:1.0417;"/><path d="M724.2075,1727.0221 L724.2075,1735.3555 A2.0833,2.0833 0 0 0 726.2909,1737.4388 L734.6242,1737.4388 L724.2075,1727.0221" fill="#0073BB" style="stroke:#005C96;stroke-width:1.0417;"/><text fill="#FFFFFF" font-family="'Verdana'" font-size="12.5" font-weight="bold" lengthAdjust="spacing" textLength="102.7588" x="580.7708" y="1749.0416">Enrichr Engine</text><text fill="#FFFFFF" font-family="'Verdana'" font-size="12.5" lengthAdjust="spacing" textLength="84.6191" x="580.7708" y="1763.5924">--logfc_enrich</text><text fill="#FFFFFF" font-family="'Verdana'" font-size="12.5" lengthAdjust="spacing" textLength="80.7556" x="580.7708" y="1778.1431">--pval_enrich</text><text fill="#FFFFFF" font-family="'Verdana'" font-size="12.5" lengthAdjust="spacing" textLength="133.02" x="580.7708" y="1792.6939">--pval_enrich_column</text></g><!--link AC to DL--><g class="link" data-entity-1="AC" data-entity-2="DL" data-source-line="110" data-uid="lnk46" id="link_AC_DL"><path d="M724.4688,305.8138 C708.8021,313.7201 691.6875,322.3555 675.9271,330.3034 C603.375,366.8867 525.1767,406.244 471.6663,433.171" fill="none" id="AC-to-DL" style="stroke:#EC7211;stroke-width:3.125;"/><polygon fill="#EC7211" points="466.0833,435.9805,476.3307,435.4883,470.7358,433.6393,472.5849,428.0444,466.0833,435.9805" style="stroke:#EC7211;stroke-width:3.125;"/><text fill="#4E5D6C" font-family="'Verdana'" font-size="12.5" lengthAdjust="spacing" textLength="48.7244" x="660.3021" y="356.4895">triggers</text></g><!--link AC to DE--><g class="link" data-entity-1="AC" data-entity-2="DE" data-source-line="111" data-uid="lnk47" id="link_AC_DE"><path d="M782.3333,305.8138 C786.3333,341.9701 792.5938,407.3971 792.5938,463.5117 C792.5938,463.5117 792.5938,463.5117 792.5938,851.6784 C792.5938,892.3034 798.5313,911.5638 769.6771,940.168 C729.0104,980.4909 687.5938,933.5013 644.6771,971.418 C624.2292,989.4909 567.6914,1156.1402 545.1914,1224.1819" fill="none" id="AC-to-DE" style="stroke:#EC7211;stroke-width:3.125;"/><polygon fill="#EC7211" points="543.2292,1230.1159,550.1285,1222.5231,544.8644,1225.1709,542.2166,1219.9068,543.2292,1230.1159" style="stroke:#EC7211;stroke-width:3.125;"/><text fill="#4E5D6C" font-family="'Verdana'" font-size="12.5" lengthAdjust="spacing" textLength="48.7244" x="798.8438" y="778.9583">triggers</text></g><!--link AC to GSEA--><g class="link" data-entity-1="AC" data-entity-2="GSEA" data-source-line="112" data-uid="lnk48" id="link_AC_GSEA"><path d="M831.4063,305.7201 C882.2917,336.6367 951.9688,392.0117 951.9688,463.5117 C951.9688,463.5117 951.9688,463.5117 951.9688,1441.7201 C951.9688,1502.2305 908.3406,1553.9757 874.4656,1585.8924" fill="none" id="AC-to-GSEA" style="stroke:#EC7211;stroke-width:3.125;"/><polygon fill="#EC7211" points="869.9167,1590.1784,879.5974,1586.7821,873.7075,1586.6067,873.8828,1580.7168,869.9167,1590.1784" style="stroke:#EC7211;stroke-width:3.125;"/><text fill="#4E5D6C" font-family="'Verdana'" font-size="12.5" lengthAdjust="spacing" textLength="48.7244" x="958.2188" y="931.9791">triggers</text></g><!--link CM to DL--><g class="link" data-entity-1="CM" data-entity-2="DL" data-source-line="114" data-uid="lnk49" id="link_CM_DL"><path d="M483.3542,305.7201 C468.0417,314.2305 453.375,325.0534 442.5938,338.6367 C420.2292,366.8242 414.0482,402.7024 412.2357,430.0879" fill="none" id="CM-to-DL" style="stroke:#EC7211;stroke-width:3.125;stroke-dasharray:7.2917,7.2917;"/><polygon fill="#EC7211" points="411.8229,436.3242,416.5996,427.2449,412.1669,431.1273,408.2845,426.6945,411.8229,436.3242" style="stroke:#EC7211;stroke-width:3.125;"/><text fill="#4E5D6C" font-family="'Verdana'" font-size="12.5" lengthAdjust="spacing" textLength="65.5151" x="448.8438" y="356.4895">configures</text></g><!--link CM to DE--><g class="link" data-entity-1="CM" data-entity-2="DE" data-source-line="115" data-uid="lnk50" id="link_CM_DE"><path d="M559.5833,305.4492 C555.8438,446.0013 538.9162,1082.3681 535.1558,1223.7118" fill="none" id="CM-to-DE" style="stroke:#EC7211;stroke-width:3.125;stroke-dasharray:7.2917,7.2917;"/><polygon fill="#EC7211" points="534.9896,1229.9596,539.4041,1220.6988,535.1281,1224.7531,531.0737,1220.4771,534.9896,1229.9596" style="stroke:#EC7211;stroke-width:3.125;"/><text fill="#4E5D6C" font-family="'Verdana'" font-size="12.5" lengthAdjust="spacing" textLength="65.5151" x="553.0104" y="778.9583">configures</text></g><!--link CM to GSEA--><g class="link" data-entity-1="CM" data-entity-2="GSEA" data-source-line="116" data-uid="lnk51" id="link_CM_GSEA"><path d="M630.9583,305.7617 C645.3229,314.3242 658.9792,325.1576 668.6354,338.6367 C701.5104,384.5013 691.5521,407.0846 691.5521,463.5117 C691.5521,463.5117 691.5521,463.5117 691.5521,851.6784 C691.5521,936.6159 796.1667,898.9701 840.5104,971.418 C883.2813,1041.293 878.0104,1069.9701 878.0104,1151.8867 C878.0104,1151.8867 878.0104,1151.8867 878.0104,1441.7201 C878.0104,1495.3346 861.9573,1549.938 849.9156,1584.2089" fill="none" id="CM-to-GSEA" style="stroke:#EC7211;stroke-width:3.125;stroke-dasharray:7.2917,7.2917;"/><polygon fill="#EC7211" points="847.8438,1590.1055,854.8826,1582.6418,849.5703,1585.1916,847.0205,1579.8793,847.8438,1590.1055" style="stroke:#EC7211;stroke-width:3.125;"/><text fill="#4E5D6C" font-family="'Verdana'" font-size="12.5" lengthAdjust="spacing" textLength="65.5151" x="813.4271" y="931.9791">configures</text></g><!--link DL to NORM--><g class="link" data-entity-1="DL" data-entity-2="NORM" data-source-line="118" data-uid="lnk52" id="link_DL_NORM"><path d="M411.2083,492.9388 C411.0104,533.0221 410.6663,601.0535 410.4684,641.1368" fill="none" id="DL-to-NORM" style="stroke:#EC7211;stroke-width:3.125;"/><polygon fill="#EC7211" points="410.4375,647.3867,414.6504,638.0324,410.4632,642.1784,406.3172,637.9913,410.4375,647.3867" style="stroke:#EC7211;stroke-width:3.125;"/><text fill="#4E5D6C" font-family="'Verdana'" font-size="12.5" lengthAdjust="spacing" textLength="55.1514" x="417.5938" y="582.2708">raw data</text></g><!--link NORM to FS--><g class="link" data-entity-1="NORM" data-entity-2="FS" data-source-line="119" data-uid="lnk53" id="link_NORM_FS"><path d="M401.3125,704.1888 C396.4375,720.5117 390.8958,741.7617 388.4271,761.1055 C386.9583,772.5846 387.4688,775.6055 388.4271,787.1471 C389.3854,798.6471 390.2007,805.0679 392.1382,815.8908" fill="none" id="NORM-to-FS" style="stroke:#EC7211;stroke-width:3.125;"/><polygon fill="#EC7211" points="393.2396,822.043,395.689,812.0804,392.3218,816.9161,387.4861,813.5489,393.2396,822.043" style="stroke:#EC7211;stroke-width:3.125;"/><text fill="#4E5D6C" font-family="'Verdana'" font-size="12.5" lengthAdjust="spacing" textLength="101.8066" x="394.6771" y="778.9583">normalized data</text></g><!--link FS to VIZ--><g class="link" data-entity-1="FS" data-entity-2="VIZ" data-source-line="120" data-uid="lnk54" id="link_FS_VIZ"><path d="M399.1458,878.918 C399.5417,914.3242 400.1596,969.5954 400.5555,1005.1684" fill="none" id="FS-to-VIZ" style="stroke:#EC7211;stroke-width:3.125;"/><polygon fill="#EC7211" points="400.625,1011.418,404.6871,1001.9972,400.567,1006.21,396.3543,1002.0899,400.625,1011.418" style="stroke:#EC7211;stroke-width:3.125;"/><text fill="#4E5D6C" font-family="'Verdana'" font-size="12.5" lengthAdjust="spacing" textLength="76.8311" x="406.1354" y="931.9791">filtered data</text></g><!--link VIZ to DE--><g class="link" data-entity-1="VIZ" data-entity-2="DE" data-source-line="121" data-uid="lnk55" id="link_VIZ_DE"><path d="M392.9375,1068.1784 C386.7083,1094.7305 381.5729,1135.5221 397.8021,1165.9492 C412.8333,1194.1471 435.3616,1212.1684 462.1012,1226.9288" fill="none" id="VIZ-to-DE" style="stroke:#EC7211;stroke-width:3.125;"/><polygon fill="#EC7211" points="467.5729,1229.9492,461.379,1221.7708,463.0132,1227.4322,457.3517,1229.0664,467.5729,1229.9492" style="stroke:#EC7211;stroke-width:3.125;"/><text fill="#4E5D6C" font-family="'Verdana'" font-size="12.5" lengthAdjust="spacing" textLength="96.0632" x="404.0521" y="1157.7603">processed data</text></g><!--link DE to RG--><g class="link" data-entity-1="DE" data-entity-2="RG" data-source-line="123" data-uid="lnk56" id="link_DE_RG"><path d="M534.2604,1286.9284 C534.2604,1320.8659 534.2604,1372.1576 534.2604,1406.0742" fill="none" id="DE-to-RG" style="stroke:#EC7211;stroke-width:3.125;"/><polygon fill="#EC7211" points="534.2604,1412.3242,538.4271,1402.9492,534.2604,1407.1159,530.0938,1402.9492,534.2604,1412.3242" style="stroke:#EC7211;stroke-width:3.125;"/><text fill="#4E5D6C" font-family="'Verdana'" font-size="12.5" lengthAdjust="spacing" textLength="63.6475" x="540.5104" y="1368.9895">DE results</text></g><!--link RG to GSEA--><g class="link" data-entity-1="RG" data-entity-2="GSEA" data-source-line="124" data-uid="lnk57" id="link_RG_GSEA"><path d="M581.4375,1469.2201 C598.0417,1478.0326 617.1146,1487.2096 635.3021,1493.7826 C655.375,1501.0326 662.0417,1497.0951 682.1771,1504.168 C714.8021,1515.6263 723.4792,1518.9492 751.9688,1538.543 C773.7917,1553.5534 791.2492,1569.4863 807.395,1585.7988" fill="none" id="RG-to-GSEA" style="stroke:#EC7211;stroke-width:3.125;"/><polygon fill="#EC7211" points="811.7917,1590.2409,808.158,1580.6467,808.1278,1586.5392,802.2353,1586.5089,811.7917,1590.2409" style="stroke:#EC7211;stroke-width:3.125;"/><text fill="#4E5D6C" font-family="'Verdana'" font-size="12.5" lengthAdjust="spacing" textLength="63.6475" x="743.6354" y="1522.0208">DE results</text></g><!--link RG to ENR--><g class="link" data-entity-1="RG" data-entity-2="ENR" data-source-line="125" data-uid="lnk58" id="link_RG_ENR"><path d="M554.2813,1469.2096 C578.3542,1502.2721 614.8206,1552.3658 638.831,1585.3345" fill="none" id="RG-to-ENR" style="stroke:#EC7211;stroke-width:3.125;"/><polygon fill="#EC7211" points="642.5104,1590.3867,640.3594,1580.3555,639.4443,1586.1766,633.6232,1585.2614,642.5104,1590.3867" style="stroke:#EC7211;stroke-width:3.125;"/><text fill="#4E5D6C" font-family="'Verdana'" font-size="12.5" lengthAdjust="spacing" textLength="63.6475" x="604.0521" y="1522.0208">DE results</text></g><!--SRC=[TLJ1ZkCs3BtxAzIvT2iWUrYWbnuA11dFO879T940U-X5uDYqBQmiQILvDzDE_xsaR4_icUGGHo8fyf6Fv2-fmnu5_8mR5y2sM2IT38h3utOJyRlueZqQRL7i7ZwBBn2WnuGXYetOkTuxYpQ9RQWwdR1AGy2Yy51zWnR5pVcfioauSoF-BOIeNf_TR2sOvwZZR60mt0Y8OhjRsv6wqUqG86bdnHuikHyjT_lYlsN4W3wu2cFKjXLxLmy6tqMzXGJYmK4z-RXzMEiVNUZ1w7yczUDVX_tQu0w1CnL7D9Ip6ytkZckZhpeE2ozVF_-zGdghcmO3MMemeZpvm9WvkIkOooD-_oHAsr8zHzJbskA0SJ0fYdkqI8MQK1tkLr5B6tJLzPcpkVPN8juVo-qo7j_N5gEpi3Gg7mySpxg48ZalNCDSIdc1Q2cBpGOckKhF7iK7lwJlfSQN9vUwtyZEXHQiZhtuqBdUgGXUeuql_H0L_Qh13F65J36myGyCJouYdNHhNK25fmgDChhNgK1R2uQt1abj9EN5BiimLxXKbUr8NEDyVkFLO9FOBNMMb8jsoywQiNlewM1JL1uIpPCbHOJU6rGqNr3J6zPq96w9KALjusO1fU4g26SBOokQrgZ0refm9d9TCr1-6MUZxdUeLQCDMfhWTpcv8VaXgLg7QxdaCP3oF1mvcKGh8rP1-vGfZ0mFmQhKKKDtpb185uY0tDzOZv2OUE_Diuf3huYXdXr1Q36nX2jH0HS2Jke7c06lGQAHa_BjC6PO_9Hnv6fPIYlwQqvuCAKyJ-j8U0LKHEF2wtdgUiO-zE2LDoxHsIgBkksUN8ZvvYl-Zz_qQA7SoNUEHUCXEp9ueXgyWHF8ozWp9VVCSjmp8csP7-OlZutD7P8_1fwHSIued12SoqxlKZQgCT9Gg0QuL8oB6hZMtF3K9pfSXqMBHCftEoP3CwvjgZFZN3AYRI5uuvE6EhcUdUQT8kLYrMI78_ZNLKMIyPBpVO8ujXdn6ecmYUtfw37qGyeJh2prqjNGlAcaNA-mHJPZm3cLIpVkZw6tYmY_YWEQ73fssiTYknERpP-q1CGV8b4XQPkSXUK5OQx3GbpizkBZnyb3DMqdIduMbnV5avU5eY07x9z7c3G1VWgkP97lhBWxajZEarsFMXAoZkQ3b6C3pIgMlMOnRP5PLv2GTOTxqj4vZ3rJq7sHuti54RAI_my0]--></g></svg>