<svg xmlns="http://www.w3.org/2000/svg" xmlns:xlink="http://www.w3.org/1999/xlink" contentStyleType="text/css" data-diagram-type="DESCRIPTION" height="1957.2917px" preserveAspectRatio="none" style="width:1380px;height:1957px;" version="1.1" viewBox="0 0 1380 1957" width="1380.2083px" zoomAndPan="magnify"><title>RNA-seq Pipeline CLI Parameters - Component Architecture</title><defs><linearGradient id="g1xncj68ozc2cx0" x1="50%" x2="50%" y1="0%" y2="100%"><stop offset="0%" stop-color="#FFFFFF"/><stop offset="100%" stop-color="#EEEEEE"/></linearGradient><linearGradient id="g1xncj68ozc2cx1" x1="50%" x2="50%" y1="0%" y2="100%"><stop offset="0%" stop-color="#F18E3E"/><stop offset="100%" stop-color="#EC7211"/></linearGradient></defs><g><g class="title" data-source-line="2"><rect fill="url(#g1xncj68ozc2cx0)" height="45.0846" rx="4.1667" ry="4.1667" style="stroke:#EEEEEE;stroke-width:1.0417;" width="720.6014" x="322.7518" y="5.2083"/><text fill="#EC7211" font-family="'Verdana'" font-size="20.8333" font-weight="bold" lengthAdjust="spacing" textLength="699.7681" x="333.1685" y="34.963">RNA-seq Pipeline CLI Parameters - Component Architecture</text></g><!--cluster Pipeline Control--><g class="cluster" data-entity="Pipeline Control" data-source-line="4" data-uid="ent0002" id="cluster_Pipeline Control"><path d="M517.5938,205.3346 L638.7689,205.3346 A6.25,6.25 0 0 1 642.9355,209.5013 L650.2272,236.5521 L943.6354,236.5521 A4.1667,4.1667 0 0 1 947.8021,240.7187 L947.8021,317.8034 A4.1667,4.1667 0 0 1 943.6354,321.9701 L517.5938,321.9701 A4.1667,4.1667 0 0 1 513.4271,317.8034 L513.4271,209.5013 A4.1667,4.1667 0 0 1 517.5938,205.3346" fill="none" style="stroke:#4E5D6C;stroke-width:2.0833;"/><line style="stroke:#4E5D6C;stroke-width:2.0833;" x1="513.4271" x2="650.2272" y1="236.5521" y2="236.5521"/><text fill="#4E5D6C" font-family="'Verdana'" font-size="12.5" font-weight="bold" lengthAdjust="spacing" textLength="112.8418" x="522.8021" y="224.2291">Pipeline Control</text></g><!--cluster Preprocessing Module--><g class="cluster" data-entity="Preprocessing Module" data-source-line="9" data-uid="ent0005" id="cluster_Preprocessing Module"><path d="M308.2188,392.6888 L472.9425,392.6888 A6.25,6.25 0 0 1 477.1091,396.8555 L484.4008,423.9063 L541.5521,423.9063 A4.1667,4.1667 0 0 1 545.7188,428.0729 L545.7188,1210.8555 A4.1667,4.1667 0 0 1 541.5521,1215.0221 L308.2188,1215.0221 A4.1667,4.1667 0 0 1 304.0521,1210.8555 L304.0521,396.8555 A4.1667,4.1667 0 0 1 308.2188,392.6888" fill="none" style="stroke:#4E5D6C;stroke-width:2.0833;"/><line style="stroke:#4E5D6C;stroke-width:2.0833;" x1="304.0521" x2="484.4008" y1="423.9063" y2="423.9063"/><text fill="#4E5D6C" font-family="'Verdana'" font-size="12.5" font-weight="bold" lengthAdjust="spacing" textLength="156.3904" x="313.4271" y="411.5833">Preprocessing Module</text></g><!--cluster Differential Expression Module--><g class="cluster" data-entity="Differential Expression Module" data-source-line="17" data-uid="ent0011" id="cluster_Differential Expression Module"><path d="M440.5104,1316.8971 L666.5623,1316.8971 A6.25,6.25 0 0 1 670.7289,1321.0638 L678.0206,1348.1146 L676.9688,1348.1146 A4.1667,4.1667 0 0 1 681.1354,1352.2813 L681.1354,1611.4909 A4.1667,4.1667 0 0 1 676.9688,1615.6576 L440.5104,1615.6576 A4.1667,4.1667 0 0 1 436.3438,1611.4909 L436.3438,1321.0638 A4.1667,4.1667 0 0 1 440.5104,1316.8971" fill="none" style="stroke:#4E5D6C;stroke-width:2.0833;"/><line style="stroke:#4E5D6C;stroke-width:2.0833;" x1="436.3438" x2="678.0206" y1="1348.1146" y2="1348.1146"/><text fill="#4E5D6C" font-family="'Verdana'" font-size="12.5" font-weight="bold" lengthAdjust="spacing" textLength="217.7185" x="445.7188" y="1335.7916">Differential Expression Module</text></g><!--cluster Enrichment Analysis Module--><g class="cluster" data-entity="Enrichment Analysis Module" data-source-line="22" data-uid="ent0014" id="cluster_Enrichment Analysis Module"><path d="M636.3438,1677.0846 L844.1949,1677.0846 A6.25,6.25 0 0 1 848.3616,1681.2513 L855.6532,1708.3021 L974.8854,1708.3021 A4.1667,4.1667 0 0 1 979.0521,1712.4688 L979.0521,1789.5534 A4.1667,4.1667 0 0 1 974.8854,1793.7201 L636.3438,1793.7201 A4.1667,4.1667 0 0 1 632.1771,1789.5534 L632.1771,1681.2513 A4.1667,4.1667 0 0 1 636.3438,1677.0846" fill="none" style="stroke:#4E5D6C;stroke-width:2.0833;"/><line style="stroke:#4E5D6C;stroke-width:2.0833;" x1="632.1771" x2="855.6532" y1="1708.3021" y2="1708.3021"/><text fill="#4E5D6C" font-family="'Verdana'" font-size="12.5" font-weight="bold" lengthAdjust="spacing" textLength="199.5178" x="641.5521" y="1695.9791">Enrichment Analysis Module</text></g><!--entity AC--><g class="entity" data-entity="AC" data-source-line="5" data-uid="ent0003" id="entity_AC"><rect fill="url(#g1xncj68ozc2cx1)" height="56.2174" rx="4.1667" ry="4.1667" style="stroke:#EC7211;stroke-width:1.0417;" width="169.3197" x="762.1042" y="249.0846"/><rect fill="url(#g1xncj68ozc2cx1)" height="10.4167" style="stroke:#EC7211;stroke-width:1.0417;" width="15.625" x="910.5905" y="254.293"/><rect fill="url(#g1xncj68ozc2cx1)" height="2.0833" style="stroke:#EC7211;stroke-width:1.0417;" width="4.1667" x="908.5072" y="256.3763"/><rect fill="url(#g1xncj68ozc2cx1)" height="2.0833" style="stroke:#EC7211;stroke-width:1.0417;" width="4.1667" x="908.5072" y="260.543"/><text fill="#FFFFFF" font-family="'Verdana'" font-size="12.5" lengthAdjust="spacing" textLength="117.2363" x="782.9375" y="286.7291">Analysis Controller</text></g><!--entity CM--><g class="entity" data-entity="CM" data-source-line="6" data-uid="ent0004" id="entity_CM"><rect fill="url(#g1xncj68ozc2cx1)" height="56.2174" rx="4.1667" ry="4.1667" style="stroke:#EC7211;stroke-width:1.0417;" width="195.6197" x="530.1979" y="249.0846"/><rect fill="url(#g1xncj68ozc2cx1)" height="10.4167" style="stroke:#EC7211;stroke-width:1.0417;" width="15.625" x="704.9843" y="254.293"/><rect fill="url(#g1xncj68ozc2cx1)" height="2.0833" style="stroke:#EC7211;stroke-width:1.0417;" width="4.1667" x="702.901" y="256.3763"/><rect fill="url(#g1xncj68ozc2cx1)" height="2.0833" style="stroke:#EC7211;stroke-width:1.0417;" width="4.1667" x="702.901" y="260.543"/><text fill="#FFFFFF" font-family="'Verdana'" font-size="12.5" lengthAdjust="spacing" textLength="143.5364" x="551.0313" y="286.7291">Configuration Manager</text></g><!--entity DL--><g class="entity" data-entity="DL" data-source-line="10" data-uid="ent0006" id="entity_DL"><rect fill="url(#g1xncj68ozc2cx1)" height="56.2174" rx="4.1667" ry="4.1667" style="stroke:#EC7211;stroke-width:1.0417;" width="128.9388" x="388.5417" y="436.4388"/><rect fill="url(#g1xncj68ozc2cx1)" height="10.4167" style="stroke:#EC7211;stroke-width:1.0417;" width="15.625" x="496.6471" y="441.6471"/><rect fill="url(#g1xncj68ozc2cx1)" height="2.0833" style="stroke:#EC7211;stroke-width:1.0417;" width="4.1667" x="494.5638" y="443.7305"/><rect fill="url(#g1xncj68ozc2cx1)" height="2.0833" style="stroke:#EC7211;stroke-width:1.0417;" width="4.1667" x="494.5638" y="447.8971"/><text fill="#FFFFFF" font-family="'Verdana'" font-size="12.5" lengthAdjust="spacing" textLength="76.8555" x="409.375" y="474.0833">Data Loader</text></g><!--entity NORM--><g class="entity" data-entity="NORM" data-source-line="11" data-uid="ent0007" id="entity_NORM"><rect fill="url(#g1xncj68ozc2cx1)" height="56.2174" rx="4.1667" ry="4.1667" style="stroke:#EC7211;stroke-width:1.0417;" width="176.8575" x="352.0833" y="633.1263"/><rect fill="url(#g1xncj68ozc2cx1)" height="10.4167" style="stroke:#EC7211;stroke-width:1.0417;" width="15.625" x="508.1075" y="638.3346"/><rect fill="url(#g1xncj68ozc2cx1)" height="2.0833" style="stroke:#EC7211;stroke-width:1.0417;" width="4.1667" x="506.0242" y="640.418"/><rect fill="url(#g1xncj68ozc2cx1)" height="2.0833" style="stroke:#EC7211;stroke-width:1.0417;" width="4.1667" x="506.0242" y="644.5846"/><text fill="#FFFFFF" font-family="'Verdana'" font-size="12.5" lengthAdjust="spacing" textLength="124.7742" x="372.9167" y="670.7708">Normalizer &amp; Scaler</text></g><!--entity TS--><g class="entity" data-entity="TS" data-source-line="12" data-uid="ent0008" id="entity_TS"><rect fill="url(#g1xncj68ozc2cx1)" height="56.2174" rx="4.1667" ry="4.1667" style="stroke:#EC7211;stroke-width:1.0417;" width="179.8726" x="346.4063" y="789.293"/><rect fill="url(#g1xncj68ozc2cx1)" height="10.4167" style="stroke:#EC7211;stroke-width:1.0417;" width="15.625" x="505.4456" y="794.5013"/><rect fill="url(#g1xncj68ozc2cx1)" height="2.0833" style="stroke:#EC7211;stroke-width:1.0417;" width="4.1667" x="503.3622" y="796.5846"/><rect fill="url(#g1xncj68ozc2cx1)" height="2.0833" style="stroke:#EC7211;stroke-width:1.0417;" width="4.1667" x="503.3622" y="800.7513"/><text fill="#FFFFFF" font-family="'Verdana'" font-size="12.5" lengthAdjust="spacing" textLength="127.7893" x="367.2396" y="826.9374">Transcript Subsetter</text></g><!--entity FS--><g class="entity" data-entity="FS" data-source-line="13" data-uid="ent0009" id="entity_FS"><rect fill="url(#g1xncj68ozc2cx1)" height="56.2174" rx="4.1667" ry="4.1667" style="stroke:#EC7211;stroke-width:1.0417;" width="155.599" x="362.7083" y="945.4596"/><rect fill="url(#g1xncj68ozc2cx1)" height="10.4167" style="stroke:#EC7211;stroke-width:1.0417;" width="15.625" x="497.474" y="950.668"/><rect fill="url(#g1xncj68ozc2cx1)" height="2.0833" style="stroke:#EC7211;stroke-width:1.0417;" width="4.1667" x="495.3906" y="952.7513"/><rect fill="url(#g1xncj68ozc2cx1)" height="2.0833" style="stroke:#EC7211;stroke-width:1.0417;" width="4.1667" x="495.3906" y="956.918"/><text fill="#FFFFFF" font-family="'Verdana'" font-size="12.5" lengthAdjust="spacing" textLength="103.5156" x="383.5417" y="983.1041">Feature Selector</text></g><!--entity VIZ--><g class="entity" data-entity="VIZ" data-source-line="14" data-uid="ent0010" id="entity_VIZ"><rect fill="url(#g1xncj68ozc2cx1)" height="56.2174" rx="4.1667" ry="4.1667" style="stroke:#EC7211;stroke-width:1.0417;" width="112.5387" x="392.5729" y="1142.1367"/><rect fill="url(#g1xncj68ozc2cx1)" height="10.4167" style="stroke:#EC7211;stroke-width:1.0417;" width="15.625" x="484.2782" y="1147.3451"/><rect fill="url(#g1xncj68ozc2cx1)" height="2.0833" style="stroke:#EC7211;stroke-width:1.0417;" width="4.1667" x="482.1949" y="1149.4284"/><rect fill="url(#g1xncj68ozc2cx1)" height="2.0833" style="stroke:#EC7211;stroke-width:1.0417;" width="4.1667" x="482.1949" y="1153.5951"/><text fill="#FFFFFF" font-family="'Verdana'" font-size="12.5" lengthAdjust="spacing" textLength="60.4553" x="413.4063" y="1179.7812">Visualizer</text></g><!--entity DE--><g class="entity" data-entity="DE" data-source-line="18" data-uid="ent0012" id="entity_DE"><rect fill="url(#g1xncj68ozc2cx1)" height="56.2174" rx="4.1667" ry="4.1667" style="stroke:#EC7211;stroke-width:1.0417;" width="147.9329" x="508.2083" y="1360.6471"/><rect fill="url(#g1xncj68ozc2cx1)" height="10.4167" style="stroke:#EC7211;stroke-width:1.0417;" width="15.625" x="635.3079" y="1365.8555"/><rect fill="url(#g1xncj68ozc2cx1)" height="2.0833" style="stroke:#EC7211;stroke-width:1.0417;" width="4.1667" x="633.2246" y="1367.9388"/><rect fill="url(#g1xncj68ozc2cx1)" height="2.0833" style="stroke:#EC7211;stroke-width:1.0417;" width="4.1667" x="633.2246" y="1372.1055"/><text fill="#FFFFFF" font-family="'Verdana'" font-size="12.5" lengthAdjust="spacing" textLength="95.8496" x="529.0417" y="1398.2916">DESeq2 Engine</text></g><!--entity RG--><g class="entity" data-entity="RG" data-source-line="19" data-uid="ent0013" id="entity_RG"><rect fill="url(#g1xncj68ozc2cx1)" height="56.2174" rx="4.1667" ry="4.1667" style="stroke:#EC7211;stroke-width:1.0417;" width="165.2303" x="499.5625" y="1542.7721"/><rect fill="url(#g1xncj68ozc2cx1)" height="10.4167" style="stroke:#EC7211;stroke-width:1.0417;" width="15.625" x="643.9595" y="1547.9805"/><rect fill="url(#g1xncj68ozc2cx1)" height="2.0833" style="stroke:#EC7211;stroke-width:1.0417;" width="4.1667" x="641.8761" y="1550.0638"/><rect fill="url(#g1xncj68ozc2cx1)" height="2.0833" style="stroke:#EC7211;stroke-width:1.0417;" width="4.1667" x="641.8761" y="1554.2305"/><text fill="#FFFFFF" font-family="'Verdana'" font-size="12.5" lengthAdjust="spacing" textLength="113.147" x="520.3958" y="1580.4166">Results Generator</text></g><!--entity GSEA--><g class="entity" data-entity="GSEA" data-source-line="23" data-uid="ent0015" id="entity_GSEA"><rect fill="url(#g1xncj68ozc2cx1)" height="56.2174" rx="4.1667" ry="4.1667" style="stroke:#EC7211;stroke-width:1.0417;" width="132.9671" x="829.2396" y="1720.8346"/><rect fill="url(#g1xncj68ozc2cx1)" height="10.4167" style="stroke:#EC7211;stroke-width:1.0417;" width="15.625" x="941.3734" y="1726.043"/><rect fill="url(#g1xncj68ozc2cx1)" height="2.0833" style="stroke:#EC7211;stroke-width:1.0417;" width="4.1667" x="939.29" y="1728.1263"/><rect fill="url(#g1xncj68ozc2cx1)" height="2.0833" style="stroke:#EC7211;stroke-width:1.0417;" width="4.1667" x="939.29" y="1732.293"/><text fill="#FFFFFF" font-family="'Verdana'" font-size="12.5" lengthAdjust="spacing" textLength="80.8838" x="850.0729" y="1758.4791">GSEA Engine</text></g><!--entity ENR--><g class="entity" data-entity="ENR" data-source-line="24" data-uid="ent0016" id="entity_ENR"><rect fill="url(#g1xncj68ozc2cx1)" height="56.2174" rx="4.1667" ry="4.1667" style="stroke:#EC7211;stroke-width:1.0417;" width="143.2638" x="649.0833" y="1720.8346"/><rect fill="url(#g1xncj68ozc2cx1)" height="10.4167" style="stroke:#EC7211;stroke-width:1.0417;" width="15.625" x="771.5138" y="1726.043"/><rect fill="url(#g1xncj68ozc2cx1)" height="2.0833" style="stroke:#EC7211;stroke-width:1.0417;" width="4.1667" x="769.4304" y="1728.1263"/><rect fill="url(#g1xncj68ozc2cx1)" height="2.0833" style="stroke:#EC7211;stroke-width:1.0417;" width="4.1667" x="769.4304" y="1732.293"/><text fill="#FFFFFF" font-family="'Verdana'" font-size="12.5" lengthAdjust="spacing" textLength="91.1804" x="669.9167" y="1758.4791">Enrichr Engine</text></g><g class="entity" data-entity="GMN17" data-source-line="28" data-uid="ent0018" id="entity_GMN17"><path d="M720.0521,66.9596 L720.0521,152.2135 A4.1667,4.1667 0 0 0 724.2188,156.3802 L872.6563,156.3802 L853.625,248.9076 L880.9896,156.3802 L1052.6388,156.3802 A4.1667,4.1667 0 0 0 1056.8054,152.2135 L1056.8054,73.2096 L1046.3888,62.793 L724.2188,62.793 A4.1667,4.1667 0 0 0 720.0521,66.9596" fill="#0073BB" style="stroke:#005C96;stroke-width:1.0417;"/><path d="M1046.3888,62.793 L1046.3888,71.1263 A2.0833,2.0833 0 0 0 1048.4721,73.2096 L1056.8054,73.2096 L1046.3888,62.793" fill="#0073BB" style="stroke:#005C96;stroke-width:1.0417;"/><text fill="#FFFFFF" font-family="'Verdana'" font-size="12.5" font-weight="bold" lengthAdjust="spacing" textLength="133.5571" x="731.5104" y="84.8124">Analysis Controller</text><text fill="#FFFFFF" font-family="'Verdana'" font-size="12.5" lengthAdjust="spacing" textLength="248.3887" x="731.5104" y="99.3632">--analysis_type (preprocessing|de|both)</text><text fill="#FFFFFF" font-family="'Verdana'" font-size="12.5" lengthAdjust="spacing" textLength="304.4617" x="731.5104" y="113.914">--organism (homo_sapiens|mus_musculus|other)</text><text fill="#FFFFFF" font-family="'Verdana'" font-size="12.5" lengthAdjust="spacing" textLength="59.0332" x="731.5104" y="128.4648">--verbose</text><text fill="#FFFFFF" font-family="'Verdana'" font-size="12.5" lengthAdjust="spacing" textLength="121.9482" x="731.5104" y="143.0155">--ignore_excel_limit</text></g><g class="entity" data-entity="GMN20" data-source-line="36" data-uid="ent0021" id="entity_GMN20"><path d="M488.8333,81.5117 L488.8333,137.6641 A4.1667,4.1667 0 0 0 493,141.8307 L590.1146,141.8307 L621.0729,248.5951 L598.4479,141.8307 L679.6842,141.8307 A4.1667,4.1667 0 0 0 683.8508,137.6641 L683.8508,87.7617 L673.4342,77.3451 L493,77.3451 A4.1667,4.1667 0 0 0 488.8333,81.5117" fill="#0073BB" style="stroke:#005C96;stroke-width:1.0417;"/><path d="M673.4342,77.3451 L673.4342,85.6784 A2.0833,2.0833 0 0 0 675.5175,87.7617 L683.8508,87.7617 L673.4342,77.3451" fill="#0073BB" style="stroke:#005C96;stroke-width:1.0417;"/><text fill="#FFFFFF" font-family="'Verdana'" font-size="12.5" font-weight="bold" lengthAdjust="spacing" textLength="162.7258" x="500.2917" y="99.3645">Configuration Manager</text><text fill="#FFFFFF" font-family="'Verdana'" font-size="12.5" lengthAdjust="spacing" textLength="141.925" x="500.2917" y="113.9153">--preprocessing_config</text><text fill="#FFFFFF" font-family="'Verdana'" font-size="12.5" lengthAdjust="spacing" textLength="69.1467" x="500.2917" y="128.4661">--de_config</text></g><g class="entity" data-entity="GMN23" data-source-line="42" data-uid="ent0024" id="entity_GMN23"><path d="M6.25,400.0951 L6.25,529.0013 A4.1667,4.1667 0 0 0 10.4167,533.168 L283.1055,533.168 A4.1667,4.1667 0 0 0 287.2721,529.0013 L287.2721,468.7201 L388.0833,464.5534 L287.2721,460.3867 L287.2721,406.3451 L276.8555,395.9284 L10.4167,395.9284 A4.1667,4.1667 0 0 0 6.25,400.0951" fill="#0073BB" style="stroke:#005C96;stroke-width:1.0417;"/><path d="M276.8555,395.9284 L276.8555,404.2617 A2.0833,2.0833 0 0 0 278.9388,406.3451 L287.2721,406.3451 L276.8555,395.9284" fill="#0073BB" style="stroke:#005C96;stroke-width:1.0417;"/><text fill="#FFFFFF" font-family="'Verdana'" font-size="12.5" font-weight="bold" lengthAdjust="spacing" textLength="86.1511" x="17.7083" y="417.9478">Data Loader</text><text fill="#FFFFFF" font-family="'Verdana'" font-size="12.5" lengthAdjust="spacing" textLength="154.8523" x="17.7083" y="432.4986">--feature_counts_pattern</text><text fill="#FFFFFF" font-family="'Verdana'" font-size="12.5" lengthAdjust="spacing" textLength="155.9692" x="17.7083" y="447.0494">--sample_metadata_path</text><text fill="#FFFFFF" font-family="'Verdana'" font-size="12.5" lengthAdjust="spacing" textLength="104.6204" x="17.7083" y="461.6002">--gene_info_path</text><text fill="#FFFFFF" font-family="'Verdana'" font-size="12.5" lengthAdjust="spacing" textLength="104.1199" x="17.7083" y="476.151">--mitocarta_path</text><text fill="#FFFFFF" font-family="'Verdana'" font-size="12.5" lengthAdjust="spacing" textLength="248.7305" x="17.7083" y="490.7017">--lncRNAs_and_prot_coding_genes_path</text><text fill="#FFFFFF" font-family="'Verdana'" font-size="12.5" lengthAdjust="spacing" textLength="101.2268" x="17.7083" y="505.2525">--h5ad_filename</text><text fill="#FFFFFF" font-family="'Verdana'" font-size="12.5" lengthAdjust="spacing" textLength="167.7002" x="17.7083" y="519.8033">--preprocessing_output_dir</text></g><g class="entity" data-entity="GMN26" data-source-line="53" data-uid="ent0027" id="entity_GMN26"><path d="M1050.9688,625.8763 L1050.9688,657.0638 L529.3229,661.2305 L1050.9688,665.3971 L1050.9688,696.5794 A4.1667,4.1667 0 0 0 1055.1354,700.7461 L1219.6333,700.7461 A4.1667,4.1667 0 0 0 1223.8,696.5794 L1223.8,632.1263 L1213.3833,621.7096 L1055.1354,621.7096 A4.1667,4.1667 0 0 0 1050.9688,625.8763" fill="#0073BB" style="stroke:#005C96;stroke-width:1.0417;"/><path d="M1213.3833,621.7096 L1213.3833,630.043 A2.0833,2.0833 0 0 0 1215.4666,632.1263 L1223.8,632.1263 L1213.3833,621.7096" fill="#0073BB" style="stroke:#005C96;stroke-width:1.0417;"/><text fill="#FFFFFF" font-family="'Verdana'" font-size="12.5" font-weight="bold" lengthAdjust="spacing" textLength="140.5396" x="1062.4271" y="643.7291">Normalizer &amp; Scaler</text><text fill="#FFFFFF" font-family="'Verdana'" font-size="12.5" lengthAdjust="spacing" textLength="115.4175" x="1062.4271" y="658.2799">--apply_sum_norm</text><text fill="#FFFFFF" font-family="'Verdana'" font-size="12.5" lengthAdjust="spacing" textLength="80.1086" x="1062.4271" y="672.8306">--target_sum</text><text fill="#FFFFFF" font-family="'Verdana'" font-size="12.5" lengthAdjust="spacing" textLength="115.1062" x="1062.4271" y="687.3814">--scale_max_value</text></g><g class="entity" data-entity="GMN29" data-source-line="60" data-uid="ent0030" id="entity_GMN29"><path d="M1051.3854,796.5951 L1051.3854,838.1966 A4.1667,4.1667 0 0 0 1055.5521,842.3633 L1225.4699,842.3633 A4.1667,4.1667 0 0 0 1229.6366,838.1966 L1229.6366,802.8451 L1219.2199,792.4284 L1055.5521,792.4284 A4.1667,4.1667 0 0 0 1051.3854,796.5951" fill="#0073BB" style="stroke:#005C96;stroke-width:1.0417;"/><path d="M1219.2199,792.4284 L1219.2199,800.7617 A2.0833,2.0833 0 0 0 1221.3032,802.8451 L1229.6366,802.8451 L1219.2199,792.4284" fill="#0073BB" style="stroke:#005C96;stroke-width:1.0417;"/><text fill="#FFFFFF" font-family="'Verdana'" font-size="12.5" font-weight="bold" lengthAdjust="spacing" textLength="145.9595" x="1062.8438" y="814.4478">Transcript Subsetter</text><text fill="#FFFFFF" font-family="'Verdana'" font-size="12.5" lengthAdjust="spacing" textLength="110.1624" x="1062.8438" y="828.9986">--transcript_types</text></g><g class="entity" data-entity="GMN32" data-source-line="65" data-uid="ent0033" id="entity_GMN32"><path d="M1093.0521,938.2201 L1093.0521,1008.9232 A4.1667,4.1667 0 0 0 1097.2188,1013.0898 L1369.2301,1013.0898 A4.1667,4.1667 0 0 0 1373.3967,1008.9232 L1373.3967,944.4701 L1362.9801,934.0534 L1097.2188,934.0534 A4.1667,4.1667 0 0 0 1093.0521,938.2201" fill="#0073BB" style="stroke:#005C96;stroke-width:1.0417;"/><path d="M1362.9801,934.0534 L1362.9801,942.3867 A2.0833,2.0833 0 0 0 1365.0634,944.4701 L1373.3967,944.4701 L1362.9801,934.0534" fill="#0073BB" style="stroke:#005C96;stroke-width:1.0417;"/><text fill="#FFFFFF" font-family="'Verdana'" font-size="12.5" font-weight="bold" lengthAdjust="spacing" textLength="117.7002" x="1104.5104" y="956.0728">Feature Selector</text><text fill="#FFFFFF" font-family="'Verdana'" font-size="12.5" lengthAdjust="spacing" textLength="77.9541" x="1104.5104" y="970.6236">--max_mean</text><text fill="#FFFFFF" font-family="'Verdana'" font-size="12.5" lengthAdjust="spacing" textLength="64.6973" x="1104.5104" y="985.1744">--min_disp</text><text fill="#FFFFFF" font-family="'Verdana'" font-size="12.5" lengthAdjust="spacing" textLength="248.053" x="1104.5104" y="999.7252">--mean_threshold_for_expressed_genes</text></g><g class="entity" data-entity="GMN35" data-source-line="72" data-uid="ent0036" id="entity_GMN35"><path d="M710.5,1105.793 L710.5,1166.0846 L505.5625,1170.2513 L710.5,1174.418 L710.5,1234.6992 A4.1667,4.1667 0 0 0 714.6667,1238.8659 L866.3533,1238.8659 A4.1667,4.1667 0 0 0 870.5199,1234.6992 L870.5199,1112.043 L860.1033,1101.6263 L714.6667,1101.6263 A4.1667,4.1667 0 0 0 710.5,1105.793" fill="#0073BB" style="stroke:#005C96;stroke-width:1.0417;"/><path d="M860.1033,1101.6263 L860.1033,1109.9596 A2.0833,2.0833 0 0 0 862.1866,1112.043 L870.5199,1112.043 L860.1033,1101.6263" fill="#0073BB" style="stroke:#005C96;stroke-width:1.0417;"/><text fill="#FFFFFF" font-family="'Verdana'" font-size="12.5" font-weight="bold" lengthAdjust="spacing" textLength="69.22" x="721.9583" y="1123.6458">Visualizer</text><text fill="#FFFFFF" font-family="'Verdana'" font-size="12.5" lengthAdjust="spacing" textLength="68.5181" x="721.9583" y="1138.1965">--pca_color</text><text fill="#FFFFFF" font-family="'Verdana'" font-size="12.5" lengthAdjust="spacing" textLength="114.9658" x="721.9583" y="1152.7473">--pca_components</text><text fill="#FFFFFF" font-family="'Verdana'" font-size="12.5" lengthAdjust="spacing" textLength="74.9207" x="721.9583" y="1167.2981">--umap_plot</text><text fill="#FFFFFF" font-family="'Verdana'" font-size="12.5" lengthAdjust="spacing" textLength="85.3699" x="721.9583" y="1181.8489">--n_neighbors</text><text fill="#FFFFFF" font-family="'Verdana'" font-size="12.5" lengthAdjust="spacing" textLength="44.5129" x="721.9583" y="1196.3997">--n_pcs</text><text fill="#FFFFFF" font-family="'Verdana'" font-size="12.5" lengthAdjust="spacing" textLength="115.6982" x="721.9583" y="1210.9504">--skip_plot_oxphos</text><text fill="#FFFFFF" font-family="'Verdana'" font-size="12.5" lengthAdjust="spacing" textLength="127.7283" x="721.9583" y="1225.5012">--oxphos_complexes</text></g><g class="entity" data-entity="GMN38" data-source-line="83" data-uid="ent0039" id="entity_GMN38"><path d="M697.9896,1331.5742 L697.9896,1384.5846 L656.3854,1388.7513 L697.9896,1392.918 L697.9896,1445.9297 A4.1667,4.1667 0 0 0 702.1563,1450.0964 L866.3734,1450.0964 A4.1667,4.1667 0 0 0 870.54,1445.9297 L870.54,1337.8242 L860.1234,1327.4076 L702.1563,1327.4076 A4.1667,4.1667 0 0 0 697.9896,1331.5742" fill="#0073BB" style="stroke:#005C96;stroke-width:1.0417;"/><path d="M860.1234,1327.4076 L860.1234,1335.7409 A2.0833,2.0833 0 0 0 862.2067,1337.8242 L870.54,1337.8242 L860.1234,1327.4076" fill="#0073BB" style="stroke:#005C96;stroke-width:1.0417;"/><text fill="#FFFFFF" font-family="'Verdana'" font-size="12.5" font-weight="bold" lengthAdjust="spacing" textLength="106.4392" x="709.4479" y="1349.427">DESeq2 Engine</text><text fill="#FFFFFF" font-family="'Verdana'" font-size="12.5" lengthAdjust="spacing" textLength="66.4612" x="709.4479" y="1363.9778">--input_file</text><text fill="#FFFFFF" font-family="'Verdana'" font-size="12.5" lengthAdjust="spacing" textLength="132.6965" x="709.4479" y="1378.5286">--anndata_data_layer</text><text fill="#FFFFFF" font-family="'Verdana'" font-size="12.5" lengthAdjust="spacing" textLength="73.0469" x="709.4479" y="1393.0793">--output_dir</text><text fill="#FFFFFF" font-family="'Verdana'" font-size="12.5" lengthAdjust="spacing" textLength="140.2588" x="709.4479" y="1407.6301">--skip_expressed_filter</text><text fill="#FFFFFF" font-family="'Verdana'" font-size="12.5" lengthAdjust="spacing" textLength="99.8718" x="709.4479" y="1422.1809">--design_factors</text><text fill="#FFFFFF" font-family="'Verdana'" font-size="12.5" lengthAdjust="spacing" textLength="103.7842" x="709.4479" y="1436.7317">--condition_pairs</text></g><g class="entity" data-entity="GMN41" data-source-line="93" data-uid="ent0042" id="entity_GMN41"><path d="M701.0208,1542.8034 L701.0208,1566.7201 L664.9479,1570.8867 L701.0208,1575.0534 L701.0208,1598.9557 A4.1667,4.1667 0 0 0 705.1875,1603.1224 L857.0816,1603.1224 A4.1667,4.1667 0 0 0 861.2483,1598.9557 L861.2483,1549.0534 L850.8316,1538.6367 L705.1875,1538.6367 A4.1667,4.1667 0 0 0 701.0208,1542.8034" fill="#0073BB" style="stroke:#005C96;stroke-width:1.0417;"/><path d="M850.8316,1538.6367 L850.8316,1546.9701 A2.0833,2.0833 0 0 0 852.915,1549.0534 L861.2483,1549.0534 L850.8316,1538.6367" fill="#0073BB" style="stroke:#005C96;stroke-width:1.0417;"/><text fill="#FFFFFF" font-family="'Verdana'" font-size="12.5" font-weight="bold" lengthAdjust="spacing" textLength="127.9358" x="712.4792" y="1560.6562">Results Generator</text><text fill="#FFFFFF" font-family="'Verdana'" font-size="12.5" lengthAdjust="spacing" textLength="104.7424" x="712.4792" y="1575.2069">--logfc_threshold</text><text fill="#FFFFFF" font-family="'Verdana'" font-size="12.5" lengthAdjust="spacing" textLength="100.8789" x="712.4792" y="1589.7577">--pval_threshold</text></g><g class="entity" data-entity="GMN44" data-source-line="99" data-uid="ent0045" id="entity_GMN44"><path d="M829.6563,1846.8451 L829.6563,1946.6497 A4.1667,4.1667 0 0 0 833.8229,1950.8164 L978.4417,1950.8164 A4.1667,4.1667 0 0 0 982.6083,1946.6497 L982.6083,1853.0951 L972.1917,1842.6784 L906.5,1842.6784 L897.6771,1777.3971 L898.1667,1842.6784 L833.8229,1842.6784 A4.1667,4.1667 0 0 0 829.6563,1846.8451" fill="#0073BB" style="stroke:#005C96;stroke-width:1.0417;"/><path d="M972.1917,1842.6784 L972.1917,1851.0117 A2.0833,2.0833 0 0 0 974.275,1853.0951 L982.6083,1853.0951 L972.1917,1842.6784" fill="#0073BB" style="stroke:#005C96;stroke-width:1.0417;"/><text fill="#FFFFFF" font-family="'Verdana'" font-size="12.5" font-weight="bold" lengthAdjust="spacing" textLength="89.8743" x="841.1146" y="1864.6978">GSEA Engine</text><text fill="#FFFFFF" font-family="'Verdana'" font-size="12.5" lengthAdjust="spacing" textLength="112.1399" x="841.1146" y="1879.2486">--skip_enrichment</text><text fill="#FFFFFF" font-family="'Verdana'" font-size="12.5" lengthAdjust="spacing" textLength="118.7561" x="841.1146" y="1893.7994">--enrich_databases</text><text fill="#FFFFFF" font-family="'Verdana'" font-size="12.5" lengthAdjust="spacing" textLength="63.0798" x="841.1146" y="1908.3502">--min_size</text><text fill="#FFFFFF" font-family="'Verdana'" font-size="12.5" lengthAdjust="spacing" textLength="66.7419" x="841.1146" y="1922.901">--max_size</text><text fill="#FFFFFF" font-family="'Verdana'" font-size="12.5" lengthAdjust="spacing" textLength="120.6604" x="841.1146" y="1937.4517">--permutation_num</text></g><g class="entity" data-entity="GMN47" data-source-line="108" data-uid="ent0048" id="entity_GMN47"><path d="M627.6458,1861.3971 L627.6458,1932.1003 A4.1667,4.1667 0 0 0 631.8125,1936.2669 L788.7909,1936.2669 A4.1667,4.1667 0 0 0 792.9575,1932.1003 L792.9575,1867.6471 L782.5409,1857.2305 L717.25,1857.2305 L718.7604,1777.3971 L708.9167,1857.2305 L631.8125,1857.2305 A4.1667,4.1667 0 0 0 627.6458,1861.3971" fill="#0073BB" style="stroke:#005C96;stroke-width:1.0417;"/><path d="M782.5409,1857.2305 L782.5409,1865.5638 A2.0833,2.0833 0 0 0 784.6242,1867.6471 L792.9575,1867.6471 L782.5409,1857.2305" fill="#0073BB" style="stroke:#005C96;stroke-width:1.0417;"/><text fill="#FFFFFF" font-family="'Verdana'" font-size="12.5" font-weight="bold" lengthAdjust="spacing" textLength="102.7588" x="639.1042" y="1879.2499">Enrichr Engine</text><text fill="#FFFFFF" font-family="'Verdana'" font-size="12.5" lengthAdjust="spacing" textLength="84.6191" x="639.1042" y="1893.8007">--logfc_enrich</text><text fill="#FFFFFF" font-family="'Verdana'" font-size="12.5" lengthAdjust="spacing" textLength="80.7556" x="639.1042" y="1908.3515">--pval_enrich</text><text fill="#FFFFFF" font-family="'Verdana'" font-size="12.5" lengthAdjust="spacing" textLength="133.02" x="639.1042" y="1922.9023">--pval_enrich_column</text></g><!--link GMN29 to TS--><g class="link" data-entity-1="GMN29" data-entity-2="TS" data-source-line="60" data-uid="lnk31" id="link_GMN29_TS"><path d="M1104.7292,792.0534 C1078.4063,775.0326 1041.0208,754.1159 1004.5729,745.0221 C818.1667,698.4805 758.6875,698.4805 572.2813,745.0221 C538.0417,753.5638 502.9688,772.543 477.0313,788.918" fill="none" id="GMN29-TS" style="stroke:#EC7211;stroke-width:3.125;stroke-dasharray:7.2917,7.2917;"/></g><!--link GMN32 to FS--><g class="link" data-entity-1="GMN32" data-entity-2="FS" data-source-line="65" data-uid="lnk34" id="link_GMN32_FS"><path d="M1162.8229,933.543 C1128.7604,916.418 1086.5938,898.4076 1046.2396,889.7826 C903.1771,859.1888 861.7917,868.3346 717.0729,889.7826 C646.3542,900.2513 568.6771,925.0326 513.6875,944.9388" fill="none" id="GMN32-FS" style="stroke:#EC7211;stroke-width:3.125;stroke-dasharray:7.2917,7.2917;"/></g><!--link AC to DL--><g class="link" data-entity-1="AC" data-entity-2="DL" data-source-line="115" data-uid="lnk50" id="link_AC_DL"><path d="M793.1667,305.7826 C777.2813,313.8138 759.8125,322.5221 743.6354,330.3034 C665.25,368.043 579.5987,406.9545 520.5467,433.4337" fill="none" id="AC-to-DL" style="stroke:#EC7211;stroke-width:3.125;"/><polygon fill="#EC7211" points="514.8438,435.9909,525.1029,435.957,519.5962,433.8599,521.6933,428.3531,514.8438,435.9909" style="stroke:#EC7211;stroke-width:3.125;"/><text fill="#4E5D6C" font-family="'Verdana'" font-size="12.5" lengthAdjust="spacing" textLength="48.7244" x="725.9271" y="356.4895">triggers</text></g><!--link AC to DE--><g class="link" data-entity-1="AC" data-entity-2="DE" data-source-line="116" data-uid="lnk51" id="link_AC_DE"><path d="M853.8229,305.6471 C862.4583,341.6263 875.9271,406.8555 875.9271,463.5117 C875.9271,463.5117 875.9271,463.5117 875.9271,890.8242 C875.9271,949.0221 865.6771,967.8555 829.0521,1013.0846 C783.5521,1069.2721 738.1563,1045.4909 692.5938,1101.6263 C675.4375,1122.7617 617.2863,1286.787 593.755,1354.2975" fill="none" id="AC-to-DE" style="stroke:#EC7211;stroke-width:3.125;"/><polygon fill="#EC7211" points="591.6979,1360.1992,598.7181,1352.718,593.4122,1355.2811,590.8491,1349.9752,591.6979,1360.1992" style="stroke:#EC7211;stroke-width:3.125;"/><text fill="#4E5D6C" font-family="'Verdana'" font-size="12.5" lengthAdjust="spacing" textLength="48.7244" x="882.1771" y="822.2291">triggers</text></g><!--link AC to GSEA--><g class="link" data-entity-1="AC" data-entity-2="GSEA" data-source-line="117" data-uid="lnk52" id="link_AC_GSEA"><path d="M889.4479,305.7201 C933.4583,337.7826 995.7188,395.1992 995.7188,463.5117 C995.7188,463.5117 995.7188,463.5117 995.7188,890.8242 C995.7188,1064.7305 999.8854,1108.1888 999.8854,1282.0951 C999.8854,1282.0951 999.8854,1282.0951 999.8854,1571.9284 C999.8854,1631.2096 959.8743,1683.508 929.0513,1715.8518" fill="none" id="AC-to-GSEA" style="stroke:#EC7211;stroke-width:3.125;"/><polygon fill="#EC7211" points="924.7396,1720.3763,934.2236,1716.464,928.3327,1716.6059,928.1909,1710.715,924.7396,1720.3763" style="stroke:#EC7211;stroke-width:3.125;"/><text fill="#4E5D6C" font-family="'Verdana'" font-size="12.5" lengthAdjust="spacing" textLength="48.7244" x="1001.9688" y="978.3958">triggers</text></g><!--link CM to DL--><g class="link" data-entity-1="CM" data-entity-2="DL" data-source-line="119" data-uid="lnk53" id="link_CM_DL"><path d="M539.7188,305.7617 C523.0625,314.1784 507.0208,324.9596 494.6771,338.6367 C470.0417,365.9701 460.826,402.1318 456.7114,429.7881" fill="none" id="CM-to-DL" style="stroke:#EC7211;stroke-width:3.125;stroke-dasharray:7.2917,7.2917;"/><polygon fill="#EC7211" points="455.7917,435.9701,461.2926,427.3103,456.5581,430.8184,453.05,426.084,455.7917,435.9701" style="stroke:#EC7211;stroke-width:3.125;"/><text fill="#4E5D6C" font-family="'Verdana'" font-size="12.5" lengthAdjust="spacing" textLength="65.5151" x="500.9271" y="356.4895">configures</text></g><!--link CM to DE--><g class="link" data-entity-1="CM" data-entity-2="DE" data-source-line="120" data-uid="lnk54" id="link_CM_DE"><path d="M620.9479,305.6471 C612.3229,341.6263 598.8438,406.8555 598.8438,463.5117 C598.8438,463.5117 598.8438,463.5117 598.8438,746.0638 C598.8438,983.9805 587.5201,1265.1009 583.6764,1353.9551" fill="none" id="CM-to-DE" style="stroke:#EC7211;stroke-width:3.125;stroke-dasharray:7.2917,7.2917;"/><polygon fill="#EC7211" points="583.4063,1360.1992,587.9742,1351.0131,583.6313,1354.9958,579.6487,1350.6529,583.4063,1360.1992" style="stroke:#EC7211;stroke-width:3.125;"/><text fill="#4E5D6C" font-family="'Verdana'" font-size="12.5" lengthAdjust="spacing" textLength="65.5151" x="604.0521" y="822.2291">configures</text></g><!--link CM to GSEA--><g class="link" data-entity-1="CM" data-entity-2="GSEA" data-source-line="121" data-uid="lnk55" id="link_CM_GSEA"><path d="M685.6979,305.5221 C699.0313,314.3555 711.8854,325.3659 720.7188,338.6367 C751.9896,385.6055 743.6354,407.0846 743.6354,463.5117 C743.6354,463.5117 743.6354,463.5117 743.6354,890.8242 C743.6354,1004.4805 843.8125,997.0846 888.4271,1101.6263 C920.5833,1176.9701 925.9271,1200.1784 925.9271,1282.0951 C925.9271,1282.0951 925.9271,1282.0951 925.9271,1571.9284 C925.9271,1625.0846 913.9494,1679.9528 904.991,1714.3695" fill="none" id="CM-to-GSEA" style="stroke:#EC7211;stroke-width:3.125;stroke-dasharray:7.2917,7.2917;"/><polygon fill="#EC7211" points="903.4167,1720.418,909.8105,1712.3948,904.7286,1715.3776,901.7459,1710.2957,903.4167,1720.418" style="stroke:#EC7211;stroke-width:3.125;"/><text fill="#4E5D6C" font-family="'Verdana'" font-size="12.5" lengthAdjust="spacing" textLength="65.5151" x="819.6771" y="978.3958">configures</text></g><!--link DL to NORM--><g class="link" data-entity-1="DL" data-entity-2="NORM" data-source-line="123" data-uid="lnk56" id="link_DL_NORM"><path d="M451.25,493.0638 C448.8646,530.1471 445.0461,589.6079 442.6711,626.6183" fill="none" id="DL-to-NORM" style="stroke:#EC7211;stroke-width:3.125;"/><polygon fill="#EC7211" points="442.2708,632.8555,447.0293,623.7665,442.6044,627.6578,438.7131,623.2329,442.2708,632.8555" style="stroke:#EC7211;stroke-width:3.125;"/><text fill="#4E5D6C" font-family="'Verdana'" font-size="12.5" lengthAdjust="spacing" textLength="55.1514" x="453.0104" y="582.2708">raw data</text></g><!--link NORM to TS--><g class="link" data-entity-1="NORM" data-entity-2="TS" data-source-line="124" data-uid="lnk57" id="link_NORM_TS"><path d="M420.0729,689.5951 C412.1146,701.8867 403.9375,716.9805 399.8854,732.0013 C396.8646,743.168 396.6979,746.918 399.8854,758.043 C402.9792,768.8242 405.312,774.3135 411.3328,783.5739" fill="none" id="NORM-to-TS" style="stroke:#EC7211;stroke-width:3.125;"/><polygon fill="#EC7211" points="414.7396,788.8138,413.1226,778.6828,411.9006,784.4472,406.1361,783.2252,414.7396,788.8138" style="stroke:#EC7211;stroke-width:3.125;"/><text fill="#4E5D6C" font-family="'Verdana'" font-size="12.5" lengthAdjust="spacing" textLength="159.6436" x="406.1354" y="749.8541">normalized &amp; scaled data</text></g><!--link TS to FS--><g class="link" data-entity-1="TS" data-entity-2="FS" data-source-line="125" data-uid="lnk58" id="link_TS_FS"><path d="M437.0938,845.9909 C437.8438,874.0326 438.8532,911.014 439.6032,938.9723" fill="none" id="TS-to-FS" style="stroke:#EC7211;stroke-width:3.125;"/><polygon fill="#EC7211" points="439.7708,945.2201,443.6846,935.7367,439.6312,940.0136,435.3543,935.9602,439.7708,945.2201" style="stroke:#EC7211;stroke-width:3.125;"/><text fill="#4E5D6C" font-family="'Verdana'" font-size="12.5" lengthAdjust="spacing" textLength="73.6023" x="445.7188" y="894.6145">subset data</text></g><!--link FS to VIZ--><g class="link" data-entity-1="FS" data-entity-2="VIZ" data-source-line="126" data-uid="lnk59" id="link_FS_VIZ"><path d="M441.6875,1002.0742 C443.2708,1039.168 445.8266,1098.6216 447.4099,1135.632" fill="none" id="FS-to-VIZ" style="stroke:#EC7211;stroke-width:3.125;"/><polygon fill="#EC7211" points="447.6771,1141.8763,451.4392,1132.3318,447.4545,1136.6727,443.1135,1132.688,447.6771,1141.8763" style="stroke:#EC7211;stroke-width:3.125;"/><text fill="#4E5D6C" font-family="'Verdana'" font-size="12.5" lengthAdjust="spacing" textLength="76.8311" x="450.9271" y="1062.1874">filtered data</text></g><!--link VIZ to DE--><g class="link" data-entity-1="VIZ" data-entity-2="DE" data-source-line="127" data-uid="lnk60" id="link_VIZ_DE"><path d="M440.8542,1198.3867 C434.625,1224.9388 429.4896,1265.7305 445.7188,1296.1576 C460.75,1324.3555 483.2783,1342.3767 510.0179,1357.1371" fill="none" id="VIZ-to-DE" style="stroke:#EC7211;stroke-width:3.125;"/><polygon fill="#EC7211" points="515.4896,1360.1576,509.2956,1351.9791,510.9298,1357.6405,505.2684,1359.2747,515.4896,1360.1576" style="stroke:#EC7211;stroke-width:3.125;"/><text fill="#4E5D6C" font-family="'Verdana'" font-size="12.5" lengthAdjust="spacing" textLength="96.0632" x="451.9688" y="1287.9687">processed data</text></g><!--link DE to RG--><g class="link" data-entity-1="DE" data-entity-2="RG" data-source-line="129" data-uid="lnk61" id="link_DE_RG"><path d="M582.1771,1417.1367 C582.1771,1451.0742 582.1771,1502.3659 582.1771,1536.2826" fill="none" id="DE-to-RG" style="stroke:#EC7211;stroke-width:3.125;"/><polygon fill="#EC7211" points="582.1771,1542.5326,586.3438,1533.1576,582.1771,1537.3242,578.0104,1533.1576,582.1771,1542.5326" style="stroke:#EC7211;stroke-width:3.125;"/><text fill="#4E5D6C" font-family="'Verdana'" font-size="12.5" lengthAdjust="spacing" textLength="63.6475" x="588.4271" y="1499.1978">DE results</text></g><!--link RG to GSEA--><g class="link" data-entity-1="RG" data-entity-2="GSEA" data-source-line="130" data-uid="lnk62" id="link_RG_GSEA"><path d="M628.7604,1599.3763 C645.4896,1608.293 664.7813,1617.543 683.2188,1623.9909 C705.5,1631.7826 712.8438,1627.1055 735.3021,1634.3763 C770.1875,1645.6784 779.8021,1648.3971 810.3021,1668.7513 C832.5,1683.5638 850.1364,1699.6827 866.2614,1716.1411" fill="none" id="RG-to-GSEA" style="stroke:#EC7211;stroke-width:3.125;"/><polygon fill="#EC7211" points="870.6354,1720.6055,867.0507,1710.9929,866.9904,1716.8851,861.0982,1716.8249,870.6354,1720.6055" style="stroke:#EC7211;stroke-width:3.125;"/><text fill="#4E5D6C" font-family="'Verdana'" font-size="12.5" lengthAdjust="spacing" textLength="63.6475" x="803.0104" y="1652.2291">DE results</text></g><!--link RG to ENR--><g class="link" data-entity-1="RG" data-entity-2="ENR" data-source-line="131" data-uid="lnk63" id="link_RG_ENR"><path d="M603.8229,1599.418 C629.8542,1632.4805 669.3931,1682.7165 695.3618,1715.6852" fill="none" id="RG-to-ENR" style="stroke:#EC7211;stroke-width:3.125;"/><polygon fill="#EC7211" points="699.2292,1720.5951,696.7014,1710.6521,696.0064,1716.5035,690.155,1715.8086,699.2292,1720.5951" style="stroke:#EC7211;stroke-width:3.125;"/><text fill="#4E5D6C" font-family="'Verdana'" font-size="12.5" lengthAdjust="spacing" textLength="63.6475" x="657.1771" y="1652.2291">DE results</text></g><!--SRC=[TLHDR-Cs4BthLx0vj5i2taE1NdeeO3Xoi42SBknW3xqGj3IIYAL8Badj9ctwtpj3IhOKsmVBv9l7-PxvANRG0vC_mifwQLeeeeeQsFvflGhmZNrM3hGom3QFdzXdwMKF4NnWAxQnlRC6J6HhNtKgGXK73qNXPFLLji3kpa-jYTxgE_PlmLXrUdQtDbA_1XKcWWP_nsHWwysIX-96jOENKLd3TjAW-ipSx8h_vXOzE6yh246PbkriFMYui7elesIFLjQZZll7fVp9-bvgzGzuzZCxL7Bowkcl_Mx9VCQ4XSeh5zbXE0Q8SQG-7vR4BKZA3Jk0nYpPJDg-8trHOSXsa_ZBfxyNiTshfW6FJ2KrAr-SfoWf7JUYB0_mxJTMcXOhaECibumzX477m1x00APsz6h_iB1Q6g-ghazLdgfrm-B3eLpFxT5zoSZA_9nKFkt9dh4HMBIEsOQgp_cLrk2yMAtaY8luwe1zSFE2lzNmThIn-nLvrhVIgD2p3vtjhGZIAJ3XhH-2m5yrw26y8HKyaR-3Fze0U5AjiHu4l5IWXLQzYWMOcf5xIoUnyJY_sfV9pOLVeaeyX6kOpk-qQcWYgSLUv7pMe4bPaxi7dmuc1k4azPb1GP2zqo1m8cMDRqZI8TnYGOKoZPq03CDMqfyPsbGutq58KmlqCwBgcXobbs4YTR_BMZHAWy6PluZ93j4DKTJAtuebpGldLyOfLz8v_Ih2q0jCUOz0bBw5I0Y5HaJHonVnNUe1Rjd0GUFysXWc4_4aIEqIRcdPafRtCveqa0CzI9EIQ33QuEY8Y8WTJc1dDUR8UkoOD91GvnpUiaH3pVbvqdEpL18BeAq_dSU92GWClNJ2QHlnR8G1rNP7wqEwkOh-mrUL6SA-kCuIb0z9aOQNItSyQidzLbA_pLT5yaWPgYtLFesSITsLFbg-0lavA__emJa3-2ucKWq11qeqal99Vc7prug61NjC-TjkuHBY_68_9TUqRPlgd7nA6NR837Yd4nT2j3qfJVk8yzcQIWgpywSrXqY-f7YFCa0OYn-mO6DBZ4S7lXzYcdvXi6rlcgOjn_bo_SsYoGQdKAxTg3-6timi_CBse9Ffq2aNYlM6hLP_uW9XVx28YSHDT0RBAs3AmmmkDZlsyUEeeHet6mO_mULLUDGo4nIeWFJJ-AF4on-CCbcaEmcU3mYRQIlKk1NIiDUPXb8YROaKqZHdV9jn720Kv0wRdX1s2dDSKPEiG91a-mUKuTddfYhmFal2fG0hji3_1m00]--></g></svg>